<?xml version="1.0" encoding="utf-8"?>
<!-- Generator: Adobe Illustrator 16.0.0, SVG Export Plug-In . SVG Version: 6.00 Build 0)  -->
<!DOCTYPE svg PUBLIC "-//W3C//DTD SVG 1.1//EN" "http://www.w3.org/Graphics/SVG/1.1/DTD/svg11.dtd">
<svg version="1.1" id="Layer_1" xmlns="http://www.w3.org/2000/svg" xmlns:xlink="http://www.w3.org/1999/xlink" x="0px" y="0px"
	 width="136px" height="50px" viewBox="0 0 136 50" enable-background="new 0 0 136 50" xml:space="preserve">
<g opacity="0.8">
	<rect x="-156.431" y="43.439" fill="none" width="69.661" height="11.25"/>
	<g opacity="0.7" enable-background="new    ">
		<path fill="#F9FCFF" d="M-141.785,46.24h-0.673v0.713h-2.841v1.416h-1.416v-4.93h4.227v0.672h0.703V46.24z M-143.201,46.24v-2.09
			h-2.099v2.09H-143.201z"/>
		<path fill="#F9FCFF" d="M-136.34,47.656h-0.673v0.713h-3.544v-0.674h-0.712V44.15h0.673v-0.711h3.554v0.672h0.703L-136.34,47.656
			L-136.34,47.656z M-137.756,47.656V44.15h-2.099v3.506H-137.756z"/>
		<path fill="#F9FCFF" d="M-130.896,48.369h-1.396v-0.674h-0.703v-0.731h-0.693v0.692h-0.703v0.713h-1.435v-4.93h1.396v2.099h0.713
			v-0.685h0.723v0.685h0.683v-2.099h1.416L-130.896,48.369L-130.896,48.369z"/>
		<path fill="#F9FCFF" d="M-125.362,48.33h-4.99v-4.98h4.99v0.693h-3.554v1.416h2.128v0.732h-2.128v1.426h3.554V48.33z"/>
		<path fill="#F9FCFF" d="M-120.006,46.251h-1.416v0.683h0.713v0.724h0.703v0.713h-2.099v-0.663h-0.703v-0.742h-0.713v1.405h-1.416
			v-4.931h4.227v0.684h0.703L-120.006,46.251L-120.006,46.251z M-121.422,45.538V44.15h-2.099v2.101h1.416v-0.713H-121.422
			L-121.422,45.538z"/>
		<path fill="#F9FCFF" d="M-114.472,48.33h-4.99v-4.98h4.99v0.693h-3.554v1.416h2.128v0.732h-2.128v1.426h3.554V48.33z"/>
		<path fill="#F9FCFF" d="M-109.116,46.953h-0.673v0.703h-0.703v0.713h-3.554v-4.93h3.514v0.672h0.713v0.703h0.703V46.953z
			 M-110.532,46.953v-2.139h-0.703V44.15h-1.396v3.506h1.426v-0.703H-110.532z"/>
		<path fill="#F9FCFF" d="M-102.404,47.656h-0.673v0.713h-4.257v-4.93h4.227v0.683h0.703v1.416h-0.683v0.702h0.683V47.656z
			 M-103.82,45.538V44.15h-2.099v1.388H-103.82z M-103.82,47.656v-1.405h-2.099v1.405H-103.82z"/>
		<path fill="#F9FCFF" d="M-97.315,45.538h-0.673v0.702h-0.723v2.129h-1.436V46.28h-0.683v-0.714h-0.713v-2.127h1.396v2.099h1.416
			v-2.099h1.416V45.538L-97.315,45.538z"/>
	</g>
	<rect x="-158.846" y="63.273" fill="none" width="69.66" height="11.25"/>
	<g opacity="0.7" enable-background="new    ">
		<path fill="#F9FCFF" d="M-142.111,66.787h-0.673v0.703h-0.703v0.713h-3.554v-4.93h3.514v0.672h0.713v0.703h0.703V66.787
			L-142.111,66.787z M-143.527,66.787v-2.139h-0.703v-0.664h-1.396v3.506h1.426v-0.703H-143.527z"/>
		<path fill="#F9FCFF" d="M-136.667,68.203h-1.416v-1.405h-2.099v1.405h-1.416v-3.516h0.673v-0.703h0.723v-0.711h2.119v0.672h0.713
			v0.703h0.703V68.203L-136.667,68.203z M-138.083,66.085v-1.437h-0.703v-0.664h-0.723v0.703h-0.673v1.396L-138.083,66.085
			L-138.083,66.085z"/>
		<path fill="#F9FCFF" d="M-132.281,63.956h-1.386v4.247h-1.416v-4.219h-1.425v-0.711h4.227V63.956z"/>
		<path fill="#F9FCFF" d="M-126.777,68.203h-1.416v-1.405h-2.099v1.405h-1.416v-3.516h0.673v-0.703h0.723v-0.711h2.119v0.672h0.713
			v0.703h0.703V68.203L-126.777,68.203z M-128.193,66.085v-1.437h-0.703v-0.664h-0.723v0.703h-0.673v1.396L-128.193,66.085
			L-128.193,66.085z"/>
		<path fill="#F9FCFF" d="M-117.798,63.956h-3.495v1.396h2.792v0.713h-2.792v2.14h-1.435v-4.931h4.93V63.956z"/>
		<path fill="#F9FCFF" d="M-112.353,66.085h-1.416v0.683h0.713v0.724h0.703v0.713h-2.099V67.54h-0.703v-0.742h-0.713v1.405h-1.416
			v-4.93h4.227v0.683h0.703L-112.353,66.085L-112.353,66.085z M-113.769,65.372v-1.388h-2.099v2.101h1.416v-0.713H-113.769z"/>
		<path fill="#F9FCFF" d="M-106.908,67.49h-0.673v0.713h-3.544V67.53h-0.712v-3.546h0.673v-0.711h3.554v0.672h0.703L-106.908,67.49
			L-106.908,67.49z M-108.324,67.49v-3.506h-2.099v3.506H-108.324z"/>
		<path fill="#F9FCFF" d="M-101.463,68.203h-1.396v-2.108h-0.703v0.692h-0.713v-0.692h-0.683v2.108h-1.435v-4.93h1.396v0.672h0.723
			v0.724h0.673v-0.692h0.723v-0.703h1.416L-101.463,68.203L-101.463,68.203z"/>
	</g>
	<g opacity="0.95">
		<g>
			<path fill="#FFFFFF" d="M-88.904,41.997h1.324v-1.13l2.023-0.458v1.588h1.891v1.61h-1.891v2.515c0,1.174,0.281,1.76,0.848,1.76
				c0.354,0,0.701-0.043,1.043-0.133l0.397,1.502c-0.591,0.197-1.106,0.297-1.552,0.297c-0.875,0-1.555-0.248-2.036-0.743
				c-0.482-0.496-0.726-1.236-0.726-2.224v-2.974h-1.324v-1.61H-88.904z"/>
			<path fill="#FFFFFF" d="M-80.637,43.443l-0.07,0.693l-1.705-0.21l0.305-1.782c0.845-0.312,1.734-0.467,2.671-0.467
				c0.472,0,0.893,0.037,1.262,0.111c0.367,0.076,0.672,0.166,0.914,0.273c0.242,0.106,0.444,0.256,0.61,0.453
				c0.166,0.192,0.294,0.37,0.378,0.53c0.086,0.16,0.149,0.375,0.194,0.64c0.045,0.264,0.07,0.479,0.078,0.639
				c0.006,0.16,0.012,0.383,0.012,0.66v2.602l0.586,0.205l-0.551,1.588l-1.318-0.406c-0.733,0.385-1.501,0.576-2.307,0.576
				c-0.979,0-1.748-0.199-2.305-0.6c-0.555-0.4-0.832-0.958-0.832-1.672c0-1.521,1.012-2.283,3.036-2.283h1.673
				c0-0.248-0.006-0.445-0.018-0.592c-0.014-0.146-0.047-0.301-0.096-0.467c-0.05-0.166-0.123-0.293-0.226-0.377
				c-0.103-0.086-0.242-0.158-0.424-0.22c-0.183-0.06-0.405-0.088-0.67-0.088C-79.869,43.251-80.268,43.314-80.637,43.443z
				 M-79.516,48.085c0.556,0,1.059-0.138,1.51-0.412v-1.282h-1.634c-0.354,0-0.612,0.053-0.774,0.157
				c-0.162,0.106-0.244,0.315-0.244,0.627c0,0.302,0.099,0.527,0.299,0.681C-80.16,48.007-79.879,48.085-79.516,48.085z"/>
			<path fill="#FFFFFF" d="M-61.859,47.617h1.128v1.619h-3.744v-1.619h0.593v-2.639c0-0.256-0.016-0.465-0.047-0.636
				c-0.032-0.169-0.088-0.327-0.168-0.475s-0.201-0.257-0.361-0.327s-0.365-0.105-0.615-0.105c-0.432,0-0.871,0.176-1.323,0.521
				v3.658h0.584v1.619h-3.246v-1.619h0.63v-2.639c0-0.256-0.014-0.466-0.042-0.636c-0.028-0.168-0.084-0.327-0.168-0.475
				c-0.082-0.148-0.204-0.257-0.365-0.328c-0.159-0.069-0.364-0.104-0.614-0.104c-0.431,0-0.877,0.176-1.34,0.521v3.659h0.622v1.62
				h-3.807v-1.62h1.159v-3.69l-1.519-0.459l0.522-1.627l2.328,0.732c0.228-0.203,0.553-0.402,0.973-0.596
				c0.42-0.194,0.814-0.293,1.184-0.293c0.57,0,1.037,0.069,1.401,0.207c0.362,0.137,0.673,0.375,0.933,0.713
				c0.276-0.209,0.625-0.412,1.045-0.615c0.42-0.202,0.82-0.305,1.207-0.305c0.52,0,0.957,0.049,1.314,0.147
				c0.357,0.098,0.672,0.269,0.941,0.51c0.271,0.242,0.469,0.576,0.596,1.005c0.128,0.43,0.193,0.959,0.199,1.592V47.617
				L-61.859,47.617z"/>
			<path fill="#FFFFFF" d="M-57.424,37.854v4.33c0.213-0.142,0.475-0.3,0.786-0.381c0.312-0.08,0.606-0.119,0.888-0.119
				c1.115,0,1.986,0.332,2.611,0.996c0.624,0.663,0.938,1.635,0.938,2.911c0,1.233-0.353,2.203-1.059,2.903
				c-0.706,0.699-1.639,1.052-2.802,1.052c-0.4,0-0.786-0.032-1.161-0.104c-0.373-0.065-0.682-0.145-0.926-0.231
				c-0.243-0.088-0.469-0.187-0.672-0.295c-0.207-0.11-0.354-0.199-0.441-0.263c-0.088-0.063-0.152-0.118-0.193-0.158v-9.403
				l-1.604-0.569l0.575-1.705L-57.424,37.854z M-56.078,47.947c0.588,0,1.039-0.213,1.352-0.643c0.314-0.428,0.472-1,0.472-1.717
				c0-0.711-0.126-1.266-0.377-1.666c-0.252-0.398-0.63-0.6-1.133-0.6c-0.302,0-0.615,0.057-0.938,0.171
				c-0.326,0.114-0.565,0.243-0.721,0.39v3.854C-57.127,47.878-56.68,47.947-56.078,47.947z"/>
			<path fill="#FFFFFF" d="M-47.283,49.544c-0.586,0-1.119-0.086-1.597-0.258c-0.479-0.17-0.886-0.421-1.223-0.751
				c-0.339-0.331-0.597-0.737-0.777-1.223c-0.182-0.483-0.272-1.041-0.272-1.67s0.092-1.188,0.274-1.678
				c0.185-0.49,0.447-0.906,0.787-1.246c0.341-0.34,0.748-0.598,1.224-0.775c0.475-0.176,1.002-0.264,1.584-0.264
				c1.08,0,1.912,0.311,2.498,0.932c0.588,0.619,0.881,1.535,0.881,2.744c0,0.361-0.035,0.693-0.103,0.996h-5.028
				c0.067,1.013,0.656,1.517,1.768,1.517c0.914,0,1.773-0.15,2.584-0.459l0.646,1.278C-45.012,49.257-46.094,49.544-47.283,49.544z
				 M-47.268,43.361c-0.555,0-0.951,0.119-1.188,0.351c-0.236,0.233-0.414,0.611-0.535,1.129h3.186
				C-45.805,43.855-46.291,43.361-47.268,43.361z"/>
			<path fill="#FFFFFF" d="M-41.841,47.622v-3.651l-1.534-0.507l0.521-1.625l2.352,0.791c0.016-0.01,0.092-0.058,0.227-0.144
				c0.135-0.086,0.248-0.151,0.337-0.202c0.092-0.05,0.227-0.117,0.401-0.201c0.176-0.086,0.342-0.155,0.494-0.207
				s0.336-0.099,0.545-0.137c0.211-0.039,0.416-0.058,0.619-0.058c0.322,0,0.596,0.043,0.84,0.109l0.398,2.295l-1.676,0.344
				l-0.209-0.834c-0.219,0.029-0.457,0.103-0.717,0.215c-0.259,0.109-0.451,0.229-0.576,0.353v3.457h1.543v1.61h-4.92v-1.608
				H-41.841z"/>
		</g>
	</g>
	
		<linearGradient id="SVGID_1_" gradientUnits="userSpaceOnUse" x1="-817.5713" y1="-467.4932" x2="-817.5713" y2="-467.4395" gradientTransform="matrix(515.7867 0 0 92.1074 421646.3438 43120.7305)">
		<stop  offset="0" style="stop-color:#F6F6F6"/>
		<stop  offset="1" style="stop-color:#989693"/>
	</linearGradient>
	<path fill="url(#SVGID_1_)" d="M-56.692,65.729c-0.327,0.254-0.743,0.383-1.254,0.383c-0.37,0-0.693-0.047-0.97-0.145
		c-0.273-0.095-0.523-0.253-0.748-0.477l0.596-0.596c0.14,0.143,0.306,0.244,0.498,0.305c0.191,0.062,0.403,0.095,0.638,0.095
		c0.554,0,0.831-0.194,0.831-0.585c0-0.163-0.041-0.292-0.125-0.383c-0.083-0.09-0.229-0.15-0.437-0.182l-0.265-0.041l-0.305-0.039
		c-0.401-0.058-0.706-0.187-0.914-0.389c-0.226-0.225-0.337-0.533-0.337-0.925c0-0.427,0.147-0.771,0.442-1.032
		s0.693-0.394,1.198-0.394c0.328,0,0.614,0.042,0.857,0.13c0.242,0.086,0.463,0.227,0.66,0.419l-0.581,0.575
		c-0.134-0.129-0.279-0.213-0.438-0.258c-0.161-0.045-0.335-0.065-0.526-0.065c-0.233,0-0.413,0.056-0.539,0.167
		c-0.125,0.113-0.188,0.254-0.188,0.426c0,0.123,0.048,0.234,0.146,0.332c0.097,0.1,0.239,0.162,0.429,0.188l0.284,0.038
		l0.272,0.041c0.21,0.031,0.388,0.074,0.53,0.133c0.145,0.056,0.266,0.135,0.367,0.232c0.242,0.228,0.363,0.562,0.363,0.998
		C-56.206,65.127-56.369,65.477-56.692,65.729L-56.692,65.729z M-52.748,62.18v3.889h-0.921V62.18h-1.229v-0.818h3.378v0.818
		H-52.748z M-49.585,66.064v-4.703h3.103v0.815h-2.181v1.11h1.856v0.816h-1.856v1.146h2.181v0.815H-49.585L-49.585,66.064z
		 M-41.723,66.064l-0.276-0.832h-1.673l-0.284,0.832h-0.957l1.711-4.703h0.72l1.72,4.703H-41.723z M-42.818,62.749l-0.596,1.709
		h1.17L-42.818,62.749z M-35.79,66.064v-2.739l-0.892,1.784h-0.62l-0.903-1.784v2.739h-0.921v-4.703h0.909l1.225,2.544l1.219-2.544
		h0.908v4.703H-35.79L-35.79,66.064z M-32.873,61.216c0.339,0,0.609,0.274,0.609,0.618c0,0.35-0.271,0.618-0.609,0.618
		s-0.609-0.271-0.609-0.618C-33.482,61.49-33.211,61.216-32.873,61.216L-32.873,61.216z M-32.873,61.312
		c-0.271,0-0.49,0.232-0.49,0.521c0,0.293,0.22,0.523,0.49,0.523c0.277,0.002,0.497-0.23,0.497-0.521
		C-32.376,61.546-32.596,61.312-32.873,61.312z M-32.985,62.191h-0.113v-0.688c0.058-0.008,0.113-0.016,0.198-0.016
		c0.102,0,0.169,0.021,0.215,0.052c0.038,0.03,0.062,0.077,0.062,0.144c0,0.092-0.062,0.145-0.136,0.168v0.004
		c0.062,0.012,0.103,0.065,0.112,0.166c0.018,0.108,0.035,0.149,0.046,0.172h-0.113c-0.017-0.021-0.033-0.086-0.051-0.176
		c-0.017-0.088-0.056-0.119-0.146-0.119h-0.073L-32.985,62.191L-32.985,62.191z M-32.985,61.812h0.079
		c0.091,0,0.163-0.032,0.163-0.119c0-0.06-0.044-0.119-0.163-0.119c-0.039,0-0.062,0.002-0.079,0.006V61.812z"/>
	
		<linearGradient id="SVGID_2_" gradientUnits="userSpaceOnUse" x1="-816.4609" y1="-467.7217" x2="-816.4609" y2="-467.6689" gradientTransform="matrix(624.9149 0 0 286.8186 510140.3125 134210.7188)">
		<stop  offset="0" style="stop-color:#EFEFEE"/>
		<stop  offset="1" style="stop-color:#84827E"/>
	</linearGradient>
	<path fill="url(#SVGID_2_)" d="M-66.19,59.361c-2.467,0-4.474,2.008-4.474,4.474c0,0.021,0,0.04,0.001,0.06l-2.882,4.179
		c-0.465-0.021-0.935,0.061-1.379,0.243c-0.195,0.08-0.378,0.179-0.551,0.291l-12.987-5.368c-0.218-1.011-0.909-1.902-1.934-2.331
		c-1.663-0.692-3.577,0.098-4.271,1.761c-0.693,1.66,0.097,3.575,1.76,4.269c0.804,0.336,1.691,0.338,2.498,0.006
		c0.186-0.077,0.36-0.172,0.527-0.276l13.016,5.38c0.225,1.001,0.913,1.881,1.929,2.305c1.662,0.692,3.579-0.097,4.271-1.759
		c0.179-0.433,0.263-0.889,0.251-1.342l4.123-2.942c0.034,0.002,0.067,0.002,0.102,0.002c2.467,0,4.472-2.007,4.472-4.474
		C-61.719,61.369-63.724,59.361-66.19,59.361 M-92.62,66.247c-0.966-0.401-1.55-1.341-1.55-2.328c0-0.321,0.062-0.649,0.193-0.965
		c0.534-1.282,2.012-1.894,3.293-1.356c0.605,0.25,1.058,0.713,1.312,1.264l-1.49-0.615c-0.944-0.395-2.031,0.053-2.425,0.998
		s0.054,2.033,0.998,2.427l1.496,0.618C-91.388,66.504-92.032,66.494-92.62,66.247 M-71.354,72.303
		c-0.536,1.283-2.014,1.893-3.296,1.358c-0.592-0.248-1.039-0.697-1.297-1.236l1.456,0.604c0.945,0.395,2.032-0.055,2.426-0.999
		c0.395-0.945-0.054-2.031-0.999-2.425l-1.506-0.623c0.581-0.222,1.241-0.229,1.858,0.027c0.621,0.26,1.104,0.745,1.359,1.366
		C-71.095,70.998-71.096,71.684-71.354,72.303 M-66.19,66.814c-1.644,0-2.979-1.336-2.979-2.979s1.336-2.979,2.979-2.979
		s2.98,1.338,2.98,2.979C-63.21,65.479-64.547,66.814-66.19,66.814 M-66.187,66.068c-1.235,0-2.237-1.002-2.237-2.237
		c0-1.237,1.002-2.24,2.237-2.24c1.237,0,2.24,1.003,2.24,2.24C-63.946,65.066-64.949,66.068-66.187,66.068"/>
</g>
<g opacity="0.8">
	<rect x="-191.771" y="158.622" fill="none" width="69.661" height="11.25"/>
	<g opacity="0.7" enable-background="new    ">
		<path fill="#F9FCFF" d="M-177.125,161.423h-0.673v0.713h-2.841v1.416h-1.416v-4.93h4.227v0.672h0.703V161.423z M-178.541,161.423
			v-2.09h-2.099v2.09H-178.541z"/>
		<path fill="#F9FCFF" d="M-171.68,162.839h-0.673v0.713h-3.544v-0.674h-0.712v-3.545h0.673v-0.711h3.554v0.672h0.703
			L-171.68,162.839L-171.68,162.839z M-173.096,162.839v-3.506h-2.099v3.506H-173.096z"/>
		<path fill="#F9FCFF" d="M-166.236,163.552h-1.396v-0.674h-0.703v-0.731h-0.693v0.692h-0.703v0.713h-1.435v-4.93h1.396v2.099h0.713
			v-0.685h0.723v0.685h0.683v-2.099h1.416L-166.236,163.552L-166.236,163.552z"/>
		<path fill="#F9FCFF" d="M-160.702,163.513h-4.99v-4.98h4.99v0.693h-3.554v1.416h2.128v0.732h-2.128v1.426h3.554V163.513z"/>
		<path fill="#F9FCFF" d="M-155.346,161.434h-1.416v0.683h0.713v0.724h0.703v0.713h-2.099v-0.663h-0.703v-0.742h-0.713v1.405h-1.416
			v-4.931h4.227v0.684h0.703L-155.346,161.434L-155.346,161.434z M-156.762,160.721v-1.388h-2.099v2.101h1.416v-0.713H-156.762
			L-156.762,160.721z"/>
		<path fill="#F9FCFF" d="M-149.812,163.513h-4.99v-4.98h4.99v0.693h-3.554v1.416h2.128v0.732h-2.128v1.426h3.554V163.513z"/>
		<path fill="#F9FCFF" d="M-144.456,162.136h-0.673v0.703h-0.703v0.713h-3.554v-4.93h3.514v0.672h0.713v0.703h0.703V162.136z
			 M-145.872,162.136v-2.139h-0.703v-0.664h-1.396v3.506h1.426v-0.703H-145.872z"/>
		<path fill="#F9FCFF" d="M-137.744,162.839h-0.673v0.713h-4.257v-4.93h4.227v0.683h0.703v1.416h-0.683v0.702h0.683V162.839z
			 M-139.16,160.721v-1.388h-2.099v1.388H-139.16z M-139.16,162.839v-1.405h-2.099v1.405H-139.16z"/>
		<path fill="#F9FCFF" d="M-132.655,160.721h-0.673v0.702h-0.723v2.129h-1.436v-2.089h-0.683v-0.714h-0.713v-2.127h1.396v2.099
			h1.416v-2.099h1.416V160.721L-132.655,160.721z"/>
	</g>
	<rect x="-194.186" y="178.456" fill="none" width="69.66" height="11.25"/>
	<g opacity="0.7" enable-background="new    ">
		<path fill="#F9FCFF" d="M-177.451,181.97h-0.673v0.703h-0.703v0.713h-3.554v-4.93h3.514v0.672h0.713v0.703h0.703V181.97
			L-177.451,181.97z M-178.867,181.97v-2.139h-0.703v-0.664h-1.396v3.506h1.426v-0.703H-178.867z"/>
		<path fill="#F9FCFF" d="M-172.007,183.386h-1.416v-1.405h-2.099v1.405h-1.416v-3.516h0.673v-0.703h0.723v-0.711h2.119v0.672h0.713
			v0.703h0.703V183.386L-172.007,183.386z M-173.423,181.268v-1.437h-0.703v-0.664h-0.723v0.703h-0.673v1.396L-173.423,181.268
			L-173.423,181.268z"/>
		<path fill="#F9FCFF" d="M-167.621,179.139h-1.386v4.247h-1.416v-4.219h-1.425v-0.711h4.227V179.139z"/>
		<path fill="#F9FCFF" d="M-162.117,183.386h-1.416v-1.405h-2.099v1.405h-1.416v-3.516h0.673v-0.703h0.723v-0.711h2.119v0.672h0.713
			v0.703h0.703V183.386L-162.117,183.386z M-163.533,181.268v-1.437h-0.703v-0.664h-0.723v0.703h-0.673v1.396L-163.533,181.268
			L-163.533,181.268z"/>
		<path fill="#F9FCFF" d="M-153.138,179.139h-3.495v1.396h2.792v0.713h-2.792v2.14h-1.435v-4.931h4.93V179.139z"/>
		<path fill="#F9FCFF" d="M-147.693,181.268h-1.416v0.683h0.713v0.724h0.703v0.713h-2.099v-0.664h-0.703v-0.742h-0.713v1.405h-1.416
			v-4.93h4.227v0.683h0.703L-147.693,181.268L-147.693,181.268z M-149.109,180.555v-1.388h-2.099v2.101h1.416v-0.713H-149.109z"/>
		<path fill="#F9FCFF" d="M-142.248,182.673h-0.673v0.713h-3.544v-0.673h-0.712v-3.546h0.673v-0.711h3.554v0.672h0.703
			L-142.248,182.673L-142.248,182.673z M-143.664,182.673v-3.506h-2.099v3.506H-143.664z"/>
		<path fill="#F9FCFF" d="M-136.803,183.386h-1.396v-2.108h-0.703v0.692h-0.713v-0.692h-0.683v2.108h-1.435v-4.93h1.396v0.672h0.723
			v0.724h0.673v-0.692h0.723v-0.703h1.416L-136.803,183.386L-136.803,183.386z"/>
	</g>
	<g opacity="0.95">
		<g>
			<path fill="#FFFFFF" d="M-124.244,157.18h1.324v-1.13l2.023-0.458v1.588h1.891v1.61h-1.891v2.515c0,1.174,0.281,1.76,0.848,1.76
				c0.354,0,0.701-0.043,1.043-0.133l0.397,1.502c-0.591,0.197-1.106,0.297-1.552,0.297c-0.875,0-1.555-0.248-2.036-0.743
				c-0.482-0.496-0.726-1.236-0.726-2.224v-2.974h-1.324v-1.61H-124.244z"/>
			<path fill="#FFFFFF" d="M-115.977,158.626l-0.07,0.693l-1.705-0.21l0.305-1.782c0.845-0.312,1.734-0.467,2.671-0.467
				c0.472,0,0.893,0.037,1.262,0.111c0.367,0.076,0.672,0.166,0.914,0.273c0.242,0.106,0.444,0.256,0.61,0.453
				c0.166,0.192,0.294,0.37,0.378,0.53c0.086,0.16,0.149,0.375,0.194,0.64c0.045,0.264,0.07,0.479,0.078,0.639
				c0.006,0.16,0.012,0.383,0.012,0.66v2.602l0.586,0.205l-0.551,1.588l-1.318-0.406c-0.733,0.385-1.501,0.576-2.307,0.576
				c-0.979,0-1.748-0.199-2.305-0.6c-0.555-0.4-0.832-0.958-0.832-1.672c0-1.521,1.012-2.283,3.036-2.283h1.673
				c0-0.248-0.006-0.445-0.018-0.592c-0.014-0.146-0.047-0.301-0.096-0.467c-0.05-0.166-0.123-0.293-0.226-0.377
				c-0.103-0.086-0.242-0.158-0.424-0.22c-0.183-0.06-0.405-0.088-0.67-0.088C-115.209,158.434-115.608,158.497-115.977,158.626z
				 M-114.856,163.268c0.556,0,1.059-0.138,1.51-0.412v-1.282h-1.634c-0.354,0-0.612,0.053-0.774,0.157
				c-0.162,0.106-0.244,0.315-0.244,0.627c0,0.302,0.099,0.527,0.299,0.681C-115.5,163.189-115.219,163.268-114.856,163.268z"/>
			<path fill="#FFFFFF" d="M-97.199,162.8h1.128v1.619h-3.744V162.8h0.593v-2.639c0-0.256-0.016-0.465-0.047-0.636
				c-0.032-0.169-0.088-0.327-0.168-0.475s-0.201-0.257-0.361-0.327s-0.365-0.105-0.615-0.105c-0.432,0-0.871,0.176-1.323,0.521
				v3.658h0.584v1.619h-3.246v-1.619h0.63v-2.639c0-0.256-0.014-0.466-0.042-0.636c-0.028-0.168-0.084-0.327-0.168-0.475
				c-0.082-0.148-0.204-0.257-0.365-0.328c-0.159-0.069-0.364-0.104-0.614-0.104c-0.431,0-0.877,0.176-1.34,0.521v3.659h0.622v1.62
				h-3.807v-1.62h1.159v-3.69l-1.519-0.459l0.522-1.627l2.328,0.732c0.228-0.203,0.553-0.402,0.973-0.596
				c0.42-0.194,0.814-0.293,1.184-0.293c0.57,0,1.037,0.069,1.401,0.207c0.362,0.137,0.673,0.375,0.933,0.713
				c0.276-0.209,0.625-0.412,1.045-0.615c0.42-0.202,0.82-0.305,1.207-0.305c0.52,0,0.957,0.049,1.314,0.147
				c0.357,0.098,0.672,0.269,0.941,0.51c0.271,0.242,0.469,0.576,0.596,1.005c0.128,0.43,0.193,0.959,0.199,1.592V162.8
				L-97.199,162.8z"/>
			<path fill="#FFFFFF" d="M-92.764,153.036v4.33c0.213-0.142,0.475-0.3,0.786-0.381c0.312-0.08,0.606-0.119,0.888-0.119
				c1.115,0,1.986,0.332,2.611,0.996c0.624,0.663,0.938,1.635,0.938,2.911c0,1.233-0.353,2.203-1.059,2.903
				c-0.706,0.699-1.639,1.052-2.802,1.052c-0.4,0-0.786-0.032-1.161-0.104c-0.373-0.065-0.682-0.145-0.926-0.231
				c-0.243-0.088-0.469-0.187-0.672-0.295c-0.207-0.11-0.354-0.199-0.441-0.263c-0.088-0.063-0.152-0.118-0.193-0.158v-9.403
				l-1.604-0.569l0.575-1.705L-92.764,153.036z M-91.418,163.13c0.588,0,1.039-0.213,1.352-0.643c0.314-0.428,0.472-1,0.472-1.717
				c0-0.711-0.126-1.266-0.377-1.666c-0.252-0.398-0.63-0.6-1.133-0.6c-0.302,0-0.615,0.057-0.938,0.171
				c-0.326,0.114-0.565,0.243-0.721,0.39v3.854C-92.467,163.061-92.02,163.13-91.418,163.13z"/>
			<path fill="#FFFFFF" d="M-82.623,164.727c-0.586,0-1.119-0.086-1.597-0.258c-0.479-0.17-0.886-0.421-1.223-0.751
				c-0.339-0.331-0.597-0.737-0.777-1.223c-0.182-0.483-0.272-1.041-0.272-1.67s0.092-1.188,0.274-1.678
				c0.185-0.49,0.447-0.906,0.787-1.246c0.341-0.34,0.748-0.598,1.224-0.775c0.475-0.176,1.002-0.264,1.584-0.264
				c1.08,0,1.912,0.311,2.498,0.932c0.588,0.619,0.881,1.535,0.881,2.744c0,0.361-0.035,0.693-0.103,0.996h-5.028
				c0.067,1.013,0.656,1.517,1.768,1.517c0.914,0,1.773-0.15,2.584-0.459l0.646,1.278
				C-80.352,164.439-81.434,164.727-82.623,164.727z M-82.608,158.544c-0.555,0-0.951,0.119-1.188,0.351
				c-0.236,0.233-0.414,0.611-0.535,1.129h3.186C-81.145,159.038-81.631,158.544-82.608,158.544z"/>
			<path fill="#FFFFFF" d="M-77.181,162.805v-3.651l-1.534-0.507l0.521-1.625l2.352,0.791c0.016-0.01,0.092-0.058,0.227-0.144
				c0.135-0.086,0.248-0.151,0.337-0.202c0.092-0.05,0.227-0.117,0.401-0.201c0.176-0.086,0.342-0.155,0.494-0.207
				s0.336-0.099,0.545-0.137c0.211-0.039,0.416-0.058,0.619-0.058c0.322,0,0.596,0.043,0.84,0.109l0.398,2.295l-1.676,0.344
				l-0.209-0.834c-0.219,0.029-0.457,0.103-0.717,0.215c-0.259,0.109-0.451,0.229-0.576,0.353v3.457h1.543v1.61h-4.92v-1.608
				H-77.181z"/>
		</g>
	</g>
	<g opacity="0.95">
		<g>
			<g>
				<g>
					<path fill="#FFFFFF" d="M-119.286,178.809h-1.986v2.104h1.986c0.581,0,1.051-0.472,1.051-1.053
						C-118.235,179.279-118.706,178.809-119.286,178.809z"/>
					<path fill="#FFFFFF" d="M-120.221,173.901c-3.872,0-7.01,3.14-7.01,7.011s3.138,7.01,7.01,7.01c3.872,0,7.01-3.139,7.01-7.01
						S-116.349,173.901-120.221,173.901z M-119.286,182.313h-1.986v2.104h-1.402v-7.011h3.388c1.355,0,2.454,1.1,2.454,2.453
						C-116.832,181.216-117.931,182.313-119.286,182.313z"/>
				</g>
			</g>
		</g>
		<path fill="#FFFFFF" d="M-108.537,183.248v-4.673h2.147c0.998,0,1.542,0.675,1.542,1.48c0,0.797-0.55,1.473-1.542,1.473h-1.17
			v1.72H-108.537z M-105.846,180.056c0-0.386-0.296-0.62-0.681-0.62h-1.033v1.231h1.033
			C-106.143,180.667-105.846,180.434-105.846,180.056"/>
		<path fill="#FFFFFF" d="M-104.254,183.248v-3.406h0.874v0.447c0.241-0.289,0.647-0.53,1.061-0.53v0.854
			c-0.062-0.015-0.138-0.021-0.241-0.021c-0.29,0-0.675,0.165-0.819,0.379v2.277H-104.254z"/>
		<path fill="#FFFFFF" d="M-101.989,181.5c0-0.942,0.661-1.741,1.755-1.741c1.102,0,1.762,0.799,1.762,1.741
			c0,0.943-0.661,1.748-1.762,1.748C-101.328,183.248-101.989,182.443-101.989,181.5 M-99.38,181.5c0-0.516-0.303-0.964-0.854-0.964
			c-0.544,0-0.847,0.448-0.847,0.964c0,0.523,0.303,0.971,0.847,0.971C-99.683,182.471-99.38,182.023-99.38,181.5"/>
		<path fill="#FFFFFF" d="M-95.53,183.248v-0.509c-0.262,0.33-0.62,0.509-1.025,0.509c-0.833,0-1.473-0.633-1.473-1.748
			c0-1.081,0.626-1.741,1.473-1.741c0.392,0,0.763,0.165,1.025,0.509v-1.692h0.881v4.673H-95.53z M-95.53,182.092v-1.177
			c-0.145-0.221-0.462-0.379-0.75-0.379c-0.502,0-0.847,0.394-0.847,0.964c0,0.578,0.344,0.971,0.847,0.971
			C-95.992,182.471-95.675,182.312-95.53,182.092"/>
		<path fill="#FFFFFF" d="M-91.537,183.248v-0.503c-0.227,0.248-0.625,0.503-1.169,0.503c-0.729,0-1.073-0.398-1.073-1.046v-2.36
			h0.874v2.017c0,0.462,0.241,0.612,0.612,0.612c0.337,0,0.605-0.187,0.757-0.379v-2.25h0.874v3.406H-91.537z"/>
		<path fill="#FFFFFF" d="M-90.006,181.5c0-1.019,0.743-1.741,1.762-1.741c0.682,0,1.095,0.297,1.315,0.599l-0.572,0.537
			c-0.158-0.234-0.399-0.358-0.701-0.358c-0.53,0-0.902,0.387-0.902,0.964c0,0.578,0.372,0.971,0.902,0.971
			c0.302,0,0.543-0.138,0.701-0.364l0.572,0.536c-0.22,0.304-0.634,0.605-1.315,0.605C-89.263,183.248-90.006,182.525-90.006,181.5"
			/>
		<path fill="#FFFFFF" d="M-86.178,182.333v-1.728h-0.55v-0.764h0.55v-0.908h0.875v0.908h0.674v0.764h-0.674v1.493
			c0,0.213,0.109,0.372,0.302,0.372c0.131,0,0.255-0.048,0.303-0.104l0.186,0.669c-0.13,0.116-0.365,0.212-0.729,0.212
			C-85.854,183.248-86.178,182.932-86.178,182.333"/>
		<polygon fill="#FFFFFF" points="-79.03,183.248 -79.03,181.232 -81.198,181.232 -81.198,183.248 -82.176,183.248 -82.176,178.575 
			-81.198,178.575 -81.198,180.379 -79.03,180.379 -79.03,178.575 -78.046,178.575 -78.046,183.248 		"/>
		<path fill="#FFFFFF" d="M-74.918,183.248v-0.503c-0.228,0.248-0.626,0.503-1.17,0.503c-0.729,0-1.074-0.398-1.074-1.046v-2.36
			h0.874v2.017c0,0.462,0.241,0.612,0.613,0.612c0.337,0,0.606-0.187,0.758-0.379v-2.25h0.874v3.406H-74.918z"/>
		<path fill="#FFFFFF" d="M-70.932,183.248v-2.092c0-0.462-0.24-0.62-0.612-0.62c-0.344,0-0.605,0.193-0.758,0.387v2.325h-0.874
			v-3.406h0.874v0.426c0.214-0.246,0.627-0.509,1.164-0.509c0.736,0,1.087,0.413,1.087,1.06v2.43H-70.932z"/>
		<path fill="#FFFFFF" d="M-69.009,182.333v-1.728h-0.55v-0.764h0.55v-0.908h0.874v0.908h0.674v0.764h-0.674v1.493
			c0,0.213,0.11,0.372,0.303,0.372c0.13,0,0.254-0.048,0.304-0.104l0.185,0.669c-0.13,0.116-0.364,0.212-0.729,0.212
			C-68.686,183.248-69.009,182.932-69.009,182.333"/>
	</g>
</g>
<g opacity="0.8">
	<rect x="2.41" y="14.375" fill="none" width="69.661" height="11.25"/>
	<g opacity="0.7" enable-background="new    ">
		<path fill="#F9FCFF" d="M17.056,17.176h-0.673v0.713h-2.841v1.416h-1.416v-4.93h4.227v0.672h0.703V17.176z M15.64,17.176v-2.09
			h-2.099v2.09H15.64z"/>
		<path fill="#F9FCFF" d="M22.501,18.592h-0.673v0.713h-3.544v-0.674h-0.712v-3.545h0.673v-0.711h3.554v0.672h0.703L22.501,18.592
			L22.501,18.592z M21.085,18.592v-3.506h-2.099v3.506H21.085z"/>
		<path fill="#F9FCFF" d="M27.945,19.305h-1.396v-0.674h-0.703v-0.731h-0.693v0.692H24.45v0.713h-1.435v-4.93h1.396v2.099h0.713
			v-0.685h0.723v0.685h0.683v-2.099h1.416L27.945,19.305L27.945,19.305z"/>
		<path fill="#F9FCFF" d="M33.479,19.266h-4.99v-4.98h4.99v0.693h-3.554v1.416h2.128v0.732h-2.128v1.426h3.554V19.266z"/>
		<path fill="#F9FCFF" d="M38.835,17.187h-1.416v0.683h0.713v0.724h0.703v0.713h-2.099v-0.663h-0.703V17.9H35.32v1.405h-1.416
			v-4.931h4.227v0.684h0.703L38.835,17.187L38.835,17.187z M37.419,16.474v-1.388H35.32v2.101h1.416v-0.713H37.419L37.419,16.474z"
			/>
		<path fill="#F9FCFF" d="M44.369,19.266h-4.99v-4.98h4.99v0.693h-3.554v1.416h2.128v0.732h-2.128v1.426h3.554V19.266z"/>
		<path fill="#F9FCFF" d="M49.725,17.889h-0.673v0.703h-0.703v0.713h-3.554v-4.93h3.514v0.672h0.713v0.703h0.703V17.889z
			 M48.309,17.889V15.75h-0.703v-0.664H46.21v3.506h1.426v-0.703H48.309z"/>
		<path fill="#F9FCFF" d="M56.437,18.592h-0.673v0.713h-4.257v-4.93h4.227v0.683h0.703v1.416h-0.683v0.702h0.683V18.592z
			 M55.021,16.474v-1.388h-2.099v1.388H55.021z M55.021,18.592v-1.405h-2.099v1.405H55.021z"/>
		<path fill="#F9FCFF" d="M61.526,16.474h-0.673v0.702H60.13v2.129h-1.436v-2.089h-0.683v-0.714h-0.713v-2.127h1.396v2.099h1.416
			v-2.099h1.416V16.474L61.526,16.474z"/>
	</g>
	<rect x="-0.005" y="34.209" fill="none" width="69.66" height="11.25"/>
	<g opacity="0.7" enable-background="new    ">
		<path fill="#F9FCFF" d="M16.73,37.723h-0.673v0.703h-0.703v0.713H11.8v-4.93h3.514v0.672h0.713v0.703h0.703V37.723L16.73,37.723z
			 M15.314,37.723v-2.139h-0.703V34.92h-1.396v3.506h1.426v-0.703H15.314z"/>
		<path fill="#F9FCFF" d="M22.174,39.139h-1.416v-1.405h-2.099v1.405h-1.416v-3.516h0.673V34.92h0.723v-0.711h2.119v0.672h0.713
			v0.703h0.703V39.139L22.174,39.139z M20.758,37.021v-1.437h-0.703V34.92h-0.723v0.703h-0.673v1.396L20.758,37.021L20.758,37.021z"
			/>
		<path fill="#F9FCFF" d="M26.56,34.892h-1.386v4.247h-1.416V34.92h-1.425v-0.711h4.227V34.892z"/>
		<path fill="#F9FCFF" d="M32.064,39.139h-1.416v-1.405h-2.099v1.405h-1.416v-3.516h0.673V34.92h0.723v-0.711h2.119v0.672h0.713
			v0.703h0.703V39.139L32.064,39.139z M30.648,37.021v-1.437h-0.703V34.92h-0.723v0.703h-0.673v1.396L30.648,37.021L30.648,37.021z"
			/>
		<path fill="#F9FCFF" d="M41.043,34.892h-3.495v1.396h2.792V37h-2.792v2.14h-1.435v-4.931h4.93V34.892z"/>
		<path fill="#F9FCFF" d="M46.488,37.021h-1.416v0.683h0.713v0.724h0.703v0.713h-2.099v-0.664h-0.703v-0.742h-0.713v1.405h-1.416
			v-4.93h4.227v0.683h0.703L46.488,37.021L46.488,37.021z M45.072,36.308V34.92h-2.099v2.101h1.416v-0.713H45.072z"/>
		<path fill="#F9FCFF" d="M51.933,38.426H51.26v0.713h-3.544v-0.673h-0.712V34.92h0.673v-0.711h3.554v0.672h0.703L51.933,38.426
			L51.933,38.426z M50.517,38.426V34.92h-2.099v3.506H50.517z"/>
		<path fill="#F9FCFF" d="M57.378,39.139h-1.396V37.03h-0.703v0.692h-0.713V37.03h-0.683v2.108h-1.435v-4.93h1.396v0.672h0.723
			v0.724h0.673v-0.692h0.723v-0.703h1.416L57.378,39.139L57.378,39.139z"/>
	</g>
	<g opacity="0.95">
		<g>
			<path fill="#FFFFFF" d="M69.938,12.933h1.323v-1.13l2.022-0.458v1.588h1.892v1.61h-1.892v2.515c0,1.174,0.281,1.76,0.849,1.76
				c0.354,0,0.701-0.043,1.043-0.133l0.397,1.502c-0.592,0.197-1.106,0.297-1.553,0.297c-0.875,0-1.555-0.248-2.035-0.743
				c-0.482-0.496-0.727-1.236-0.727-2.224v-2.974h-1.324v-1.61H69.938z"/>
			<path fill="#FFFFFF" d="M78.203,14.379l-0.069,0.693l-1.705-0.21l0.306-1.782c0.844-0.312,1.733-0.467,2.67-0.467
				c0.473,0,0.894,0.037,1.263,0.111c0.366,0.076,0.672,0.166,0.914,0.273c0.241,0.106,0.444,0.256,0.61,0.453
				c0.166,0.192,0.293,0.37,0.377,0.53c0.086,0.16,0.149,0.375,0.194,0.64c0.045,0.264,0.07,0.479,0.078,0.639
				c0.006,0.16,0.013,0.383,0.013,0.66v2.602l0.586,0.205l-0.552,1.588l-1.317-0.406c-0.733,0.385-1.502,0.576-2.308,0.576
				c-0.979,0-1.748-0.199-2.305-0.6c-0.556-0.4-0.832-0.958-0.832-1.672c0-1.521,1.012-2.283,3.036-2.283h1.673
				c0-0.248-0.007-0.445-0.019-0.592c-0.014-0.146-0.047-0.301-0.096-0.467c-0.05-0.166-0.123-0.293-0.227-0.377
				c-0.103-0.086-0.241-0.158-0.424-0.22c-0.183-0.06-0.404-0.088-0.67-0.088C78.972,14.187,78.572,14.25,78.203,14.379z
				 M79.324,19.021c0.557,0,1.06-0.138,1.511-0.412v-1.282h-1.634c-0.354,0-0.612,0.053-0.774,0.157
				c-0.162,0.106-0.244,0.315-0.244,0.627c0,0.302,0.099,0.527,0.3,0.681C78.681,18.942,78.962,19.021,79.324,19.021z"/>
			<path fill="#FFFFFF" d="M96.982,18.553h1.127v1.619h-3.744v-1.619h0.594v-2.639c0-0.256-0.016-0.465-0.047-0.636
				c-0.032-0.169-0.088-0.327-0.168-0.475s-0.201-0.257-0.361-0.327s-0.365-0.105-0.615-0.105c-0.432,0-0.871,0.176-1.322,0.521
				v3.658h0.584v1.619h-3.246v-1.619h0.629v-2.639c0-0.256-0.014-0.466-0.041-0.636c-0.028-0.168-0.084-0.327-0.168-0.475
				c-0.082-0.148-0.204-0.257-0.365-0.328c-0.159-0.069-0.364-0.104-0.614-0.104c-0.431,0-0.877,0.176-1.34,0.521v3.659h0.622v1.62
				h-3.807v-1.62h1.158v-3.69L84.339,14.4l0.522-1.627l2.328,0.732c0.228-0.203,0.553-0.402,0.973-0.596
				c0.42-0.194,0.813-0.293,1.184-0.293c0.57,0,1.037,0.069,1.401,0.207c0.362,0.137,0.673,0.375,0.933,0.713
				c0.276-0.209,0.625-0.412,1.045-0.615c0.42-0.202,0.82-0.305,1.207-0.305c0.52,0,0.957,0.049,1.314,0.147
				c0.357,0.098,0.672,0.269,0.941,0.51c0.271,0.242,0.469,0.576,0.596,1.005c0.127,0.43,0.192,0.959,0.199,1.592V18.553
				L96.982,18.553z"/>
			<path fill="#FFFFFF" d="M101.417,8.789v4.33c0.213-0.142,0.475-0.3,0.786-0.381c0.312-0.08,0.605-0.119,0.888-0.119
				c1.115,0,1.985,0.332,2.61,0.996c0.625,0.663,0.938,1.635,0.938,2.911c0,1.233-0.353,2.203-1.059,2.903
				c-0.706,0.699-1.64,1.052-2.802,1.052c-0.4,0-0.787-0.032-1.162-0.104c-0.373-0.065-0.682-0.145-0.926-0.231
				c-0.242-0.088-0.469-0.187-0.672-0.295c-0.207-0.11-0.354-0.199-0.441-0.263s-0.151-0.118-0.192-0.158v-9.403l-1.604-0.569
				l0.576-1.705L101.417,8.789z M102.763,18.883c0.588,0,1.039-0.213,1.353-0.643c0.313-0.428,0.472-1,0.472-1.717
				c0-0.711-0.126-1.266-0.377-1.666c-0.252-0.398-0.63-0.6-1.134-0.6c-0.301,0-0.614,0.057-0.938,0.171
				c-0.326,0.114-0.564,0.243-0.721,0.39v3.854C101.714,18.813,102.16,18.883,102.763,18.883z"/>
			<path fill="#FFFFFF" d="M111.558,20.479c-0.586,0-1.118-0.086-1.597-0.258c-0.479-0.17-0.887-0.421-1.223-0.751
				c-0.34-0.331-0.598-0.737-0.777-1.223c-0.182-0.483-0.271-1.041-0.271-1.67s0.092-1.188,0.273-1.678
				c0.186-0.49,0.447-0.906,0.787-1.246c0.341-0.34,0.748-0.598,1.224-0.775c0.476-0.176,1.002-0.264,1.584-0.264
				c1.08,0,1.912,0.311,2.498,0.932c0.589,0.619,0.882,1.535,0.882,2.744c0,0.361-0.035,0.693-0.104,0.996h-5.028
				c0.067,1.013,0.656,1.517,1.769,1.517c0.914,0,1.772-0.15,2.584-0.459l0.646,1.278C113.828,20.192,112.746,20.479,111.558,20.479
				z M111.572,14.297c-0.555,0-0.951,0.119-1.188,0.351c-0.236,0.233-0.414,0.611-0.535,1.129h3.186
				C113.035,14.791,112.55,14.297,111.572,14.297z"/>
			<path fill="#FFFFFF" d="M117,18.558v-3.651l-1.534-0.507l0.521-1.625l2.353,0.791c0.017-0.01,0.092-0.058,0.228-0.144
				c0.135-0.086,0.248-0.151,0.336-0.202c0.092-0.05,0.228-0.117,0.401-0.201c0.177-0.086,0.343-0.155,0.494-0.207
				s0.336-0.099,0.545-0.137c0.211-0.039,0.416-0.058,0.619-0.058c0.321,0,0.596,0.043,0.84,0.109l0.397,2.295l-1.676,0.344
				l-0.209-0.834c-0.219,0.029-0.457,0.103-0.717,0.215c-0.259,0.109-0.451,0.229-0.576,0.353v3.457h1.543v1.61h-4.92v-1.608H117z"
				/>
		</g>
	</g>
	<g opacity="0.95">
		<g>
			<g>
				<g>
					<path fill="#FFFFFF" d="M74.875,27.826c-4.377,0-7.925,3.55-7.925,7.926c0,4.374,3.548,7.923,7.925,7.923
						c4.375,0,7.923-3.549,7.923-7.923C82.798,31.376,79.25,27.826,74.875,27.826z M75.931,37.335h-2.245v2.378h-1.584v-7.925h3.829
						c1.531,0,2.773,1.242,2.773,2.773C78.704,36.095,77.462,37.335,75.931,37.335z"/>
					<path fill="#FFFFFF" d="M75.931,33.374h-2.245v2.378h2.245c0.656,0,1.188-0.534,1.188-1.19S76.587,33.374,75.931,33.374z"/>
				</g>
			</g>
		</g>
		<path fill="#FFFFFF" d="M88.081,38.392v-5.282h2.427c1.128,0,1.743,0.764,1.743,1.673c0,0.901-0.623,1.666-1.743,1.666h-1.322
			v1.943H88.081z M91.123,34.782c0-0.436-0.335-0.699-0.77-0.699h-1.168v1.391h1.168C90.788,35.474,91.123,35.211,91.123,34.782"/>
		<path fill="#FFFFFF" d="M92.922,38.392v-3.851h0.988v0.506c0.271-0.327,0.731-0.6,1.199-0.6v0.965
			c-0.071-0.015-0.156-0.023-0.272-0.023c-0.327,0-0.763,0.187-0.927,0.429v2.574H92.922z"/>
		<path fill="#FFFFFF" d="M95.481,36.415c0-1.065,0.748-1.968,1.986-1.968c1.245,0,1.991,0.902,1.991,1.968
			c0,1.066-0.746,1.977-1.991,1.977C96.229,38.392,95.481,37.481,95.481,36.415 M98.433,36.415c0-0.582-0.343-1.089-0.965-1.089
			c-0.616,0-0.958,0.507-0.958,1.089c0,0.593,0.342,1.098,0.958,1.098C98.09,37.513,98.433,37.008,98.433,36.415"/>
		<path fill="#FFFFFF" d="M102.783,38.392v-0.576c-0.295,0.374-0.699,0.576-1.158,0.576c-0.943,0-1.665-0.716-1.665-1.977
			c0-1.221,0.708-1.968,1.665-1.968c0.443,0,0.863,0.187,1.158,0.576v-1.914h0.996v5.282H102.783z M102.783,37.084v-1.329
			c-0.163-0.25-0.521-0.429-0.847-0.429c-0.569,0-0.958,0.444-0.958,1.089c0,0.654,0.389,1.098,0.958,1.098
			C102.262,37.513,102.62,37.333,102.783,37.084"/>
		<path fill="#FFFFFF" d="M107.298,38.392v-0.568c-0.255,0.28-0.707,0.568-1.322,0.568c-0.823,0-1.212-0.451-1.212-1.183v-2.668
			h0.987v2.28c0,0.522,0.271,0.691,0.69,0.691c0.383,0,0.685-0.211,0.856-0.429v-2.543h0.988v3.851H107.298z"/>
		<path fill="#FFFFFF" d="M109.028,36.415c0-1.15,0.84-1.968,1.992-1.968c0.77,0,1.237,0.335,1.487,0.678l-0.647,0.606
			c-0.179-0.265-0.451-0.405-0.792-0.405c-0.601,0-1.021,0.438-1.021,1.089c0,0.654,0.42,1.098,1.021,1.098
			c0.341,0,0.613-0.156,0.792-0.411l0.647,0.605c-0.25,0.344-0.718,0.685-1.487,0.685C109.868,38.392,109.028,37.575,109.028,36.415
			"/>
		<path fill="#FFFFFF" d="M113.355,37.356v-1.952h-0.621v-0.863h0.621v-1.026h0.988v1.026h0.762v0.863h-0.762v1.688
			c0,0.24,0.124,0.42,0.342,0.42c0.148,0,0.289-0.054,0.344-0.117l0.209,0.756c-0.146,0.133-0.412,0.24-0.824,0.24
			C113.721,38.392,113.355,38.034,113.355,37.356"/>
		<polygon fill="#FFFFFF" points="121.436,38.392 121.436,36.113 118.985,36.113 118.985,38.392 117.879,38.392 117.879,33.109 
			118.985,33.109 118.985,35.149 121.436,35.149 121.436,33.109 122.549,33.109 122.549,38.392 		"/>
		<path fill="#FFFFFF" d="M126.084,38.392v-0.568c-0.257,0.28-0.708,0.568-1.323,0.568c-0.824,0-1.213-0.451-1.213-1.183v-2.668
			h0.987v2.28c0,0.522,0.271,0.691,0.691,0.691c0.381,0,0.686-0.211,0.857-0.429v-2.543h0.987v3.851H126.084z"/>
		<path fill="#FFFFFF" d="M130.59,38.392v-2.364c0-0.522-0.271-0.701-0.691-0.701c-0.39,0-0.685,0.219-0.856,0.438v2.628h-0.988
			v-3.851h0.988v0.482c0.241-0.279,0.708-0.576,1.315-0.576c0.833,0,1.229,0.466,1.229,1.197v2.747H130.59z"/>
		<path fill="#FFFFFF" d="M132.764,37.356v-1.952h-0.623v-0.863h0.623v-1.026h0.987v1.026h0.764v0.863h-0.764v1.688
			c0,0.24,0.125,0.42,0.343,0.42c0.147,0,0.288-0.054,0.343-0.117l0.209,0.756c-0.146,0.133-0.412,0.24-0.822,0.24
			C133.129,38.392,132.764,38.034,132.764,37.356"/>
	</g>
</g>
<g opacity="0.8">
	<rect x="6.415" y="-48.876" fill="none" width="69.661" height="11.25"/>
	<g enable-background="new    ">
		<path fill="#F9FCFF" d="M21.061-46.075h-0.673v0.713h-2.841v1.416H16.13v-4.93h4.227v0.673h0.703L21.061-46.075L21.061-46.075z
			 M19.645-46.075v-2.089h-2.099v2.089H19.645z"/>
		<path fill="#F9FCFF" d="M26.505-44.659h-0.673v0.713h-3.544v-0.673h-0.712v-3.545h0.673v-0.712h3.554v0.673h0.703L26.505-44.659
			L26.505-44.659z M25.089-44.659v-3.505H22.99v3.505H25.089z"/>
		<path fill="#F9FCFF" d="M31.95-43.946h-1.396v-0.673h-0.703v-0.732h-0.693v0.692h-0.703v0.713H27.02v-4.93h1.396v2.099h0.713
			v-0.684h0.723v0.684h0.683v-2.099h1.416L31.95-43.946L31.95-43.946z"/>
		<path fill="#F9FCFF" d="M37.484-43.985h-4.99v-4.98h4.99v0.693H33.93v1.416h2.128v0.732H33.93v1.426h3.554V-43.985z"/>
		<path fill="#F9FCFF" d="M42.84-46.064h-1.416v0.683h0.713v0.723h0.703v0.713h-2.099v-0.663h-0.703v-0.742h-0.713v1.405H37.91
			v-4.93h4.227v0.683h0.703V-46.064z M41.424-46.777v-1.387h-2.099v2.1h1.416v-0.713H41.424z"/>
		<path fill="#F9FCFF" d="M48.374-43.985h-4.99v-4.98h4.99v0.693H44.82v1.416h2.128v0.732H44.82v1.426h3.554V-43.985z"/>
		<path fill="#F9FCFF" d="M53.73-45.362h-0.673v0.703h-0.703v0.713H48.8v-4.93h3.514v0.673h0.713v0.703h0.703V-45.362z
			 M52.314-45.362V-47.5h-0.703v-0.664h-1.396v3.505h1.426v-0.703H52.314z"/>
		<path fill="#F9FCFF" d="M60.442-44.659h-0.673v0.713h-4.257v-4.93h4.227v0.683h0.703v1.416h-0.683v0.702h0.683V-44.659z
			 M59.026-46.777v-1.387h-2.099v1.387H59.026z M59.026-44.659v-1.405h-2.099v1.405H59.026z"/>
		<path fill="#F9FCFF" d="M65.53-46.777h-0.673v0.702h-0.723v2.129h-1.436v-2.089h-0.683v-0.713h-0.713v-2.128h1.396v2.099h1.416
			v-2.099h1.416V-46.777z"/>
	</g>
	<rect x="4" y="-29.042" fill="none" width="69.66" height="11.251"/>
	<g enable-background="new    ">
		<path fill="#F9FCFF" d="M20.734-25.527h-0.673v0.702h-0.703v0.714h-3.554v-4.931h3.514v0.673h0.713v0.703h0.703V-25.527z
			 M19.318-25.527v-2.139h-0.703v-0.664H17.22v3.505h1.426v-0.702H19.318z"/>
		<path fill="#F9FCFF" d="M26.179-24.111h-1.416v-1.406h-2.099v1.406h-1.416v-3.516h0.673v-0.703h0.723v-0.712h2.119v0.673h0.713
			v0.703h0.703V-24.111z M24.763-26.23v-1.436H24.06v-0.664h-0.723v0.703h-0.673v1.396H24.763L24.763-26.23z"/>
		<path fill="#F9FCFF" d="M30.564-28.359h-1.386v4.248h-1.416v-4.219h-1.425v-0.712h4.227V-28.359z"/>
		<path fill="#F9FCFF" d="M36.069-24.111h-1.416v-1.406h-2.099v1.406h-1.416v-3.516h0.673v-0.703h0.723v-0.712h2.119v0.673h0.713
			v0.703h0.703V-24.111z M34.653-26.23v-1.436H33.95v-0.664h-0.723v0.703h-0.673v1.396H34.653L34.653-26.23z"/>
		<path fill="#F9FCFF" d="M45.048-28.359h-3.495v1.396h2.792v0.713h-2.792v2.139h-1.435v-4.93h4.93V-28.359z"/>
		<path fill="#F9FCFF" d="M50.493-26.23h-1.416v0.684h0.713v0.723h0.703v0.713h-2.099v-0.662h-0.703v-0.742h-0.713v1.404h-1.416
			v-4.93h4.227v0.684h0.703L50.493-26.23L50.493-26.23z M49.077-26.943v-1.387h-2.099v2.1h1.416v-0.713H49.077z"/>
		<path fill="#F9FCFF" d="M55.938-24.825h-0.673v0.714H51.72v-0.674h-0.712v-3.545h0.673v-0.712h3.554v0.673h0.703V-24.825z
			 M54.522-24.825v-3.505h-2.099v3.505H54.522z"/>
		<path fill="#F9FCFF" d="M61.383-24.111h-1.396v-2.108h-0.703v0.692h-0.713v-0.692h-0.683v2.108h-1.435v-4.931h1.396v0.673h0.723
			v0.723h0.673v-0.692h0.723v-0.702h1.416L61.383-24.111L61.383-24.111z"/>
	</g>
	<g opacity="0.95">
		<g>
			<path fill="#FFFFFF" d="M73.941-50.318h1.324v-1.13l2.022-0.458v1.588h1.892v1.611h-1.892v2.514c0,1.174,0.28,1.76,0.849,1.76
				c0.354,0,0.7-0.043,1.043-0.133l0.396,1.502c-0.592,0.197-1.105,0.297-1.553,0.297c-0.875,0-1.555-0.248-2.035-0.743
				c-0.482-0.497-0.727-1.237-0.727-2.224v-2.974h-1.324v-1.61H73.941z"/>
			<path fill="#FFFFFF" d="M82.209-48.871l-0.07,0.693l-1.705-0.21l0.305-1.782c0.846-0.312,1.734-0.467,2.672-0.467
				c0.472,0,0.893,0.037,1.262,0.111c0.367,0.076,0.672,0.166,0.914,0.274c0.242,0.106,0.443,0.255,0.609,0.452
				c0.166,0.193,0.295,0.371,0.379,0.531c0.086,0.16,0.148,0.375,0.193,0.639c0.045,0.264,0.07,0.479,0.078,0.639
				c0.006,0.161,0.012,0.383,0.012,0.661v2.601l0.586,0.205l-0.551,1.588l-1.317-0.406c-0.733,0.385-1.501,0.576-2.308,0.576
				c-0.979,0-1.748-0.199-2.305-0.6c-0.555-0.4-0.832-0.958-0.832-1.672c0-1.521,1.012-2.283,3.036-2.283h1.673
				c0-0.248-0.006-0.445-0.018-0.592c-0.014-0.145-0.047-0.3-0.096-0.467c-0.051-0.165-0.123-0.292-0.227-0.376
				c-0.104-0.086-0.242-0.158-0.424-0.22c-0.184-0.06-0.405-0.088-0.67-0.088C82.977-49.064,82.578-49.001,82.209-48.871z
				 M83.33-44.23c0.557,0,1.059-0.138,1.51-0.412v-1.283h-1.634c-0.354,0-0.612,0.053-0.774,0.158
				c-0.162,0.106-0.244,0.315-0.244,0.627c0,0.302,0.1,0.527,0.299,0.681C82.686-44.309,82.967-44.23,83.33-44.23z"/>
			<path fill="#FFFFFF" d="M100.986-44.698h1.127v1.62H98.37v-1.62h0.593v-2.639c0-0.255-0.016-0.465-0.047-0.635
				c-0.032-0.169-0.088-0.327-0.168-0.475s-0.201-0.257-0.361-0.327s-0.365-0.105-0.615-0.105c-0.432,0-0.871,0.176-1.322,0.521
				v3.658h0.584v1.62h-3.246v-1.62h0.63v-2.639c0-0.255-0.015-0.465-0.042-0.635c-0.027-0.168-0.084-0.327-0.168-0.475
				c-0.082-0.148-0.204-0.257-0.365-0.328c-0.158-0.069-0.363-0.104-0.613-0.104c-0.432,0-0.877,0.176-1.34,0.521v3.659h0.621v1.62
				h-3.807v-1.62h1.158v-3.69l-1.519-0.459l0.522-1.627l2.328,0.732c0.228-0.203,0.553-0.402,0.973-0.596
				c0.42-0.194,0.814-0.292,1.184-0.292c0.57,0,1.037,0.069,1.401,0.207c0.362,0.137,0.673,0.375,0.933,0.712
				c0.276-0.208,0.625-0.412,1.045-0.615c0.42-0.202,0.82-0.304,1.207-0.304c0.521,0,0.957,0.049,1.314,0.147
				c0.357,0.098,0.672,0.269,0.941,0.51c0.271,0.242,0.469,0.576,0.596,1.005c0.128,0.429,0.193,0.959,0.199,1.591V-44.698
				L100.986-44.698z"/>
			<path fill="#FFFFFF" d="M105.422-54.463v4.33c0.213-0.141,0.475-0.299,0.786-0.38c0.312-0.08,0.606-0.12,0.888-0.12
				c1.115,0,1.986,0.332,2.611,0.996c0.624,0.664,0.938,1.635,0.938,2.912c0,1.233-0.353,2.203-1.059,2.903
				c-0.706,0.7-1.639,1.052-2.802,1.052c-0.4,0-0.786-0.033-1.161-0.104c-0.373-0.066-0.682-0.145-0.926-0.232
				c-0.243-0.088-0.469-0.187-0.672-0.295c-0.207-0.11-0.354-0.199-0.441-0.263c-0.088-0.063-0.152-0.118-0.193-0.158v-9.403
				l-1.604-0.569l0.574-1.706L105.422-54.463z M106.768-44.368c0.588,0,1.039-0.213,1.353-0.642c0.313-0.428,0.472-1,0.472-1.717
				c0-0.711-0.126-1.266-0.377-1.666c-0.252-0.398-0.63-0.6-1.133-0.6c-0.303,0-0.615,0.057-0.938,0.171
				c-0.326,0.114-0.565,0.244-0.722,0.39v3.854C105.719-44.438,106.166-44.368,106.768-44.368z"/>
			<path fill="#FFFFFF" d="M115.562-42.772c-0.586,0-1.119-0.086-1.598-0.258c-0.479-0.17-0.886-0.421-1.223-0.751
				c-0.34-0.331-0.598-0.737-0.777-1.223c-0.182-0.483-0.271-1.041-0.271-1.67c0-0.628,0.092-1.187,0.273-1.677
				c0.186-0.491,0.447-0.906,0.787-1.246c0.342-0.34,0.748-0.598,1.225-0.775c0.475-0.176,1.002-0.264,1.584-0.264
				c1.08,0,1.912,0.31,2.498,0.931c0.588,0.62,0.881,1.536,0.881,2.744c0,0.362-0.035,0.694-0.104,0.996h-5.027
				c0.066,1.013,0.655,1.517,1.768,1.517c0.914,0,1.773-0.15,2.584-0.459l0.646,1.278C117.834-43.059,116.752-42.772,115.562-42.772
				z M115.578-48.953c-0.555,0-0.951,0.118-1.188,0.35c-0.236,0.234-0.414,0.611-0.535,1.129h3.186
				C117.041-48.459,116.555-48.953,115.578-48.953z"/>
			<path fill="#FFFFFF" d="M121.005-44.693v-3.651l-1.534-0.507l0.521-1.625l2.352,0.791c0.016-0.01,0.092-0.058,0.227-0.143
				c0.136-0.086,0.248-0.152,0.338-0.203c0.092-0.05,0.227-0.117,0.4-0.201c0.176-0.086,0.342-0.155,0.494-0.207
				s0.336-0.098,0.545-0.137c0.211-0.039,0.416-0.058,0.619-0.058c0.322,0,0.596,0.043,0.84,0.11l0.398,2.295l-1.676,0.343
				l-0.209-0.833c-0.219,0.029-0.457,0.102-0.717,0.214c-0.26,0.11-0.451,0.229-0.576,0.353v3.457h1.543v1.611h-4.92v-1.609H121.005
				z"/>
		</g>
	</g>
	
		<linearGradient id="SVGID_3_" gradientUnits="userSpaceOnUse" x1="-817.2554" y1="-468.4951" x2="-817.2554" y2="-468.4418" gradientTransform="matrix(515.7867 0 0 92.1074 421646.3438 43120.7305)">
		<stop  offset="0" style="stop-color:#F6F6F6"/>
		<stop  offset="1" style="stop-color:#989693"/>
	</linearGradient>
	<path fill="url(#SVGID_3_)" d="M106.152-26.587c-0.326,0.254-0.742,0.382-1.254,0.382c-0.369,0-0.692-0.047-0.969-0.145
		c-0.273-0.094-0.523-0.252-0.748-0.477l0.596-0.595c0.14,0.142,0.306,0.243,0.498,0.304c0.19,0.063,0.402,0.096,0.638,0.096
		c0.554,0,0.831-0.195,0.831-0.586c0-0.162-0.041-0.291-0.125-0.383c-0.083-0.089-0.229-0.15-0.438-0.182l-0.265-0.04l-0.306-0.039
		c-0.4-0.058-0.705-0.187-0.913-0.39c-0.226-0.225-0.337-0.532-0.337-0.924c0-0.428,0.146-0.771,0.441-1.033
		s0.693-0.394,1.198-0.394c0.328,0,0.614,0.042,0.856,0.13c0.242,0.086,0.463,0.227,0.66,0.42l-0.58,0.574
		c-0.135-0.128-0.279-0.213-0.438-0.258c-0.161-0.044-0.335-0.064-0.526-0.064c-0.232,0-0.412,0.056-0.539,0.166
		c-0.125,0.113-0.188,0.254-0.188,0.426c0,0.123,0.048,0.234,0.146,0.332c0.096,0.1,0.238,0.162,0.428,0.188l0.285,0.039l0.271,0.04
		c0.21,0.031,0.389,0.075,0.53,0.133c0.145,0.057,0.266,0.135,0.366,0.232c0.242,0.229,0.363,0.562,0.363,0.998
		C106.641-27.188,106.477-26.84,106.152-26.587L106.152-26.587z M110.098-30.137v3.889h-0.921v-3.889h-1.229v-0.817h3.378v0.817
		H110.098z M113.262-26.25v-4.704h3.102v0.815h-2.18v1.111h1.855v0.815h-1.855v1.146h2.18v0.815L113.262-26.25L113.262-26.25z
		 M121.123-26.25l-0.275-0.832h-1.674l-0.283,0.832h-0.957l1.711-4.704h0.719l1.721,4.704H121.123z M120.027-29.566l-0.596,1.709
		h1.17L120.027-29.566z M127.057-26.25v-2.74l-0.893,1.785h-0.62l-0.903-1.785v2.74h-0.92v-4.704h0.908l1.225,2.544l1.22-2.544
		h0.907v4.704H127.057L127.057-26.25z M129.973-31.1c0.34,0,0.609,0.273,0.609,0.617c0,0.35-0.271,0.618-0.609,0.618
		s-0.608-0.27-0.608-0.618C129.363-30.825,129.635-31.1,129.973-31.1L129.973-31.1z M129.973-31.002c-0.271,0-0.49,0.232-0.49,0.521
		c0,0.293,0.221,0.522,0.49,0.522c0.277,0.003,0.498-0.229,0.498-0.521S130.25-31.002,129.973-31.002z M129.859-30.123h-0.112
		v-0.688c0.058-0.008,0.112-0.017,0.198-0.017c0.102,0,0.168,0.022,0.215,0.052c0.037,0.03,0.062,0.077,0.062,0.145
		c0,0.091-0.062,0.145-0.137,0.167v0.005c0.062,0.011,0.104,0.064,0.111,0.166c0.019,0.107,0.035,0.148,0.047,0.171h-0.113
		c-0.018-0.021-0.033-0.085-0.051-0.175c-0.018-0.088-0.057-0.12-0.146-0.12h-0.072v0.294H129.859z M129.859-30.504h0.08
		c0.09,0,0.162-0.032,0.162-0.118c0-0.06-0.043-0.12-0.162-0.12c-0.039,0-0.062,0.002-0.08,0.006V-30.504z"/>
	
		<linearGradient id="SVGID_4_" gradientUnits="userSpaceOnUse" x1="-816.2007" y1="-468.0439" x2="-816.2007" y2="-467.9903" gradientTransform="matrix(624.9149 0 0 286.8186 510140.3125 134210.7188)">
		<stop  offset="0" style="stop-color:#EFEFEE"/>
		<stop  offset="1" style="stop-color:#84827E"/>
	</linearGradient>
	<path fill="url(#SVGID_4_)" d="M96.654-32.953c-2.467,0-4.473,2.008-4.473,4.473c0,0.021,0,0.041,0,0.06L89.3-24.242
		c-0.465-0.021-0.935,0.061-1.379,0.244c-0.194,0.079-0.378,0.178-0.551,0.29l-12.987-5.368c-0.218-1.011-0.908-1.902-1.934-2.331
		c-1.663-0.692-3.577,0.099-4.271,1.761c-0.693,1.66,0.097,3.576,1.759,4.27c0.805,0.336,1.691,0.337,2.498,0.006
		c0.187-0.078,0.36-0.172,0.527-0.277l13.016,5.381c0.226,1,0.914,1.881,1.93,2.304c1.662,0.692,3.578-0.097,4.271-1.759
		c0.178-0.432,0.262-0.889,0.25-1.342l4.123-2.941c0.034,0.002,0.067,0.002,0.102,0.002c2.468,0,4.473-2.007,4.473-4.475
		C101.127-30.945,99.122-32.953,96.654-32.953 M70.227-26.068c-0.967-0.4-1.551-1.341-1.551-2.328c0-0.321,0.062-0.648,0.193-0.965
		c0.533-1.281,2.012-1.893,3.293-1.356c0.605,0.251,1.059,0.713,1.312,1.264l-1.49-0.614c-0.944-0.395-2.031,0.053-2.426,0.998
		c-0.394,0.944,0.055,2.033,0.998,2.426l1.496,0.619C71.458-25.812,70.812-25.82,70.227-26.068 M91.492-20.014
		c-0.536,1.283-2.014,1.893-3.297,1.359c-0.592-0.248-1.038-0.697-1.297-1.236l1.457,0.604c0.944,0.395,2.031-0.055,2.426-0.999
		s-0.055-2.03-0.999-2.425l-1.507-0.623c0.582-0.221,1.242-0.229,1.858,0.027c0.621,0.26,1.104,0.746,1.359,1.367
		C91.751-21.316,91.75-20.633,91.492-20.014 M96.654-25.5c-1.643,0-2.979-1.337-2.979-2.98c0-1.643,1.336-2.979,2.979-2.979
		c1.644,0,2.98,1.337,2.98,2.979C99.637-26.837,98.299-25.5,96.654-25.5 M96.659-26.247c-1.235,0-2.237-1.001-2.237-2.237
		s1.002-2.24,2.237-2.24c1.237,0,2.239,1.004,2.239,2.24S97.896-26.247,96.659-26.247"/>
</g>
<path d="M166.568,89V74.523h6.65c3.092,0,4.776,2.089,4.776,4.584c0,2.473-1.705,4.562-4.776,4.562h-3.623V89H166.568z
	 M174.904,79.107c0-1.194-0.918-1.919-2.11-1.919h-3.198v3.816h3.198C173.986,81.005,174.904,80.28,174.904,79.107"/>
<path d="M179.837,89V78.446h2.706v1.386c0.746-0.896,2.005-1.642,3.284-1.642v2.644c-0.192-0.043-0.427-0.063-0.746-0.063
	c-0.896,0-2.09,0.512-2.538,1.173V89H179.837z"/>
<path d="M186.854,83.585c0-2.921,2.047-5.395,5.438-5.395c3.411,0,5.458,2.474,5.458,5.395c0,2.92-2.047,5.415-5.458,5.415
	C188.9,89,186.854,86.505,186.854,83.585 M194.935,83.585c0-1.6-0.939-2.985-2.644-2.985c-1.686,0-2.623,1.386-2.623,2.985
	c0,1.62,0.938,3.006,2.623,3.006C193.995,86.591,194.935,85.205,194.935,83.585"/>
<path d="M206.859,89v-1.578C206.049,88.445,204.94,89,203.683,89c-2.58,0-4.562-1.962-4.562-5.415c0-3.348,1.94-5.395,4.562-5.395
	c1.215,0,2.366,0.512,3.177,1.577v-5.244h2.729V89H206.859z M206.859,85.418v-3.646c-0.448-0.683-1.429-1.173-2.325-1.173
	c-1.555,0-2.621,1.215-2.621,2.985c0,1.79,1.066,3.005,2.621,3.005C205.431,86.59,206.411,86.1,206.859,85.418"/>
<path d="M219.231,89v-1.557c-0.703,0.768-1.938,1.557-3.623,1.557c-2.26,0-3.326-1.236-3.326-3.241v-7.312h2.707v6.247
	c0,1.429,0.746,1.896,1.896,1.896c1.046,0,1.877-0.575,2.346-1.172v-6.972h2.708V89H219.231z"/>
<path d="M223.973,83.585c0-3.155,2.302-5.395,5.458-5.395c2.111,0,3.391,0.917,4.072,1.855l-1.771,1.662
	c-0.489-0.725-1.236-1.108-2.173-1.108c-1.643,0-2.794,1.194-2.794,2.985c0,1.79,1.151,3.006,2.794,3.006
	c0.937,0,1.684-0.427,2.173-1.131l1.771,1.663c-0.682,0.938-1.961,1.877-4.072,1.877C226.274,89,223.973,86.762,223.973,83.585"/>
<path d="M235.831,86.164v-5.351h-1.704v-2.367h1.704v-2.814h2.708v2.814h2.089v2.367h-2.089v4.626c0,0.66,0.341,1.151,0.938,1.151
	c0.405,0,0.79-0.149,0.938-0.319l0.576,2.067c-0.404,0.362-1.13,0.661-2.26,0.661C236.833,89,235.831,88.02,235.831,86.164"/>
<polygon points="257.972,89 257.972,82.753 251.255,82.753 251.255,89 248.229,89 248.229,74.523 251.255,74.523 251.255,80.109 
	257.972,80.109 257.972,74.523 261.02,74.523 261.02,89 "/>
<path d="M270.708,89v-1.557C270.005,88.211,268.77,89,267.085,89c-2.26,0-3.326-1.236-3.326-3.241v-7.312h2.706v6.247
	c0,1.429,0.747,1.896,1.898,1.896c1.045,0,1.876-0.575,2.345-1.172v-6.972h2.708V89H270.708z"/>
<path d="M283.059,89v-6.481c0-1.429-0.745-1.919-1.898-1.919c-1.065,0-1.874,0.597-2.345,1.194V89h-2.707V78.446h2.707v1.321
	c0.661-0.767,1.94-1.577,3.604-1.577c2.281,0,3.368,1.279,3.368,3.283V89H283.059z"/>
<path d="M289.015,86.164v-5.351h-1.705v-2.367h1.705v-2.814h2.708v2.814h2.088v2.367h-2.088v4.626c0,0.66,0.34,1.151,0.938,1.151
	c0.404,0,0.79-0.149,0.938-0.319l0.575,2.067c-0.404,0.362-1.13,0.661-2.261,0.661C290.016,89,289.015,88.02,289.015,86.164"/>
<g>
	<g>
		<g>
			<g>
				<path fill="#FFFFFF" d="M-87.139,119.533c-6.075,0-11,4.925-11,11s4.925,11,11,11s11-4.925,11-11
					S-81.064,119.533-87.139,119.533z M-85.672,132.733h-3.116v3.3h-2.2v-11h5.316c2.127,0,3.851,1.724,3.851,3.85
					C-81.822,131.01-83.545,132.733-85.672,132.733z"/>
				<path fill="#FFFFFF" d="M-85.672,127.233h-3.116v3.3h3.116c0.911,0,1.65-0.739,1.65-1.65S-84.761,127.233-85.672,127.233z"/>
			</g>
		</g>
	</g>
	<path fill="#FFFFFF" d="M-68.805,134.2v-7.334h3.369c1.565,0,2.419,1.059,2.419,2.322c0,1.253-0.863,2.312-2.419,2.312h-1.836v2.7
		H-68.805z M-64.583,129.188c0-0.604-0.465-0.972-1.069-0.972h-1.62v1.933h1.62C-65.047,130.149-64.583,129.782-64.583,129.188"/>
	<path fill="#FFFFFF" d="M-62.084,134.2v-5.347h1.371v0.702c0.378-0.454,1.016-0.831,1.664-0.831v1.339
		c-0.098-0.021-0.217-0.032-0.378-0.032c-0.454,0-1.06,0.259-1.286,0.594v3.575H-62.084z"/>
	<path fill="#FFFFFF" d="M-58.53,131.457c0-1.48,1.037-2.732,2.754-2.732c1.729,0,2.766,1.252,2.766,2.732
		c0,1.479-1.037,2.743-2.766,2.743C-57.493,134.2-58.53,132.937-58.53,131.457 M-54.436,131.457c0-0.811-0.476-1.513-1.34-1.513
		c-0.854,0-1.328,0.702-1.328,1.513c0,0.82,0.475,1.522,1.328,1.522C-54.912,132.979-54.436,132.277-54.436,131.457"/>
	<path fill="#FFFFFF" d="M-48.395,134.2v-0.8c-0.411,0.519-0.973,0.8-1.609,0.8c-1.308,0-2.312-0.994-2.312-2.743
		c0-1.696,0.983-2.732,2.312-2.732c0.615,0,1.198,0.259,1.609,0.799v-2.657h1.382v7.334H-48.395z M-48.395,132.385v-1.847
		c-0.228-0.346-0.725-0.594-1.178-0.594c-0.788,0-1.328,0.616-1.328,1.513c0,0.906,0.54,1.522,1.328,1.522
		C-49.12,132.979-48.623,132.73-48.395,132.385"/>
	<path fill="#FFFFFF" d="M-42.128,134.2v-0.789c-0.355,0.389-0.981,0.789-1.835,0.789c-1.145,0-1.685-0.627-1.685-1.643v-3.704
		h1.371v3.165c0,0.724,0.378,0.961,0.961,0.961c0.529,0,0.95-0.292,1.188-0.595v-3.531h1.372v5.347H-42.128z"/>
	<path fill="#FFFFFF" d="M-39.726,131.457c0-1.599,1.166-2.732,2.765-2.732c1.069,0,1.718,0.464,2.063,0.939l-0.897,0.842
		c-0.248-0.367-0.626-0.562-1.101-0.562c-0.832,0-1.415,0.605-1.415,1.513c0,0.906,0.583,1.522,1.415,1.522
		c0.475,0,0.853-0.216,1.101-0.572l0.897,0.842c-0.346,0.476-0.994,0.951-2.063,0.951C-38.56,134.2-39.726,133.065-39.726,131.457"
		/>
	<path fill="#FFFFFF" d="M-33.719,132.764v-2.711h-0.863v-1.199h0.863v-1.426h1.372v1.426h1.058v1.199h-1.058v2.344
		c0,0.334,0.172,0.583,0.475,0.583c0.205,0,0.4-0.076,0.476-0.162l0.291,1.048c-0.204,0.184-0.572,0.335-1.145,0.335
		C-33.211,134.2-33.719,133.703-33.719,132.764"/>
	<polygon fill="#FFFFFF" points="-22.503,134.2 -22.503,131.035 -25.906,131.035 -25.906,134.2 -27.439,134.2 -27.439,126.866 
		-25.906,126.866 -25.906,129.696 -22.503,129.696 -22.503,126.866 -20.959,126.866 -20.959,134.2 	"/>
	<path fill="#FFFFFF" d="M-16.051,134.2v-0.789c-0.356,0.389-0.982,0.789-1.836,0.789c-1.145,0-1.685-0.627-1.685-1.643v-3.704
		h1.371v3.165c0,0.724,0.378,0.961,0.961,0.961c0.529,0,0.951-0.292,1.188-0.595v-3.531h1.372v5.347H-16.051z"/>
	<path fill="#FFFFFF" d="M-9.795,134.2v-3.283c0-0.725-0.377-0.973-0.961-0.973c-0.54,0-0.95,0.303-1.188,0.605v3.65h-1.371v-5.347
		h1.371v0.67c0.335-0.389,0.983-0.799,1.826-0.799c1.155,0,1.706,0.647,1.706,1.662v3.813H-9.795z"/>
	<path fill="#FFFFFF" d="M-6.778,132.764v-2.711h-0.864v-1.199h0.864v-1.426h1.371v1.426h1.059v1.199h-1.059v2.344
		c0,0.334,0.173,0.583,0.476,0.583c0.204,0,0.399-0.076,0.476-0.162l0.291,1.048c-0.205,0.184-0.572,0.335-1.145,0.335
		C-6.271,134.2-6.778,133.703-6.778,132.764"/>
</g>
</svg>
