<?xml version="1.0" encoding="utf-8"?>
<!-- Generator: Adobe Illustrator 16.0.0, SVG Export Plug-In . SVG Version: 6.00 Build 0)  -->
<!DOCTYPE svg PUBLIC "-//W3C//DTD SVG 1.1//EN" "http://www.w3.org/Graphics/SVG/1.1/DTD/svg11.dtd">
<svg version="1.1" id="Layer_1" xmlns="http://www.w3.org/2000/svg" xmlns:xlink="http://www.w3.org/1999/xlink" x="0px" y="0px"
	 width="136px" height="50px" viewBox="0 0 136 50" enable-background="new 0 0 136 50" xml:space="preserve">
<g opacity="0.8">
	<rect x="-156.431" y="43.439" fill="none" width="69.661" height="11.25"/>
	<g opacity="0.7" enable-background="new    ">
		<path fill="#F9FCFF" d="M-141.785,46.24h-0.673v0.713h-2.841v1.416h-1.416v-4.93h4.227v0.673h0.703V46.24z M-143.201,46.24v-2.089
			h-2.099v2.089H-143.201z"/>
		<path fill="#F9FCFF" d="M-136.34,47.656h-0.673v0.713h-3.544v-0.673h-0.712v-3.545h0.673v-0.712h3.554v0.673h0.703V47.656z
			 M-137.756,47.656v-3.505h-2.099v3.505H-137.756z"/>
		<path fill="#F9FCFF" d="M-130.896,48.369h-1.396v-0.673h-0.703v-0.732h-0.693v0.692h-0.703v0.713h-1.435v-4.93h1.396v2.099h0.713
			v-0.684h0.723v0.684h0.683v-2.099h1.416V48.369z"/>
		<path fill="#F9FCFF" d="M-125.362,48.33h-4.99v-4.98h4.99v0.693h-3.554v1.416h2.128v0.732h-2.128v1.426h3.554V48.33z"/>
		<path fill="#F9FCFF" d="M-120.006,46.251h-1.416v0.683h0.713v0.723h0.703v0.713h-2.099v-0.663h-0.703v-0.742h-0.713v1.405h-1.416
			v-4.93h4.227v0.683h0.703V46.251z M-121.422,45.538v-1.387h-2.099v2.1h1.416v-0.713H-121.422z"/>
		<path fill="#F9FCFF" d="M-114.472,48.33h-4.99v-4.98h4.99v0.693h-3.554v1.416h2.128v0.732h-2.128v1.426h3.554V48.33z"/>
		<path fill="#F9FCFF" d="M-109.116,46.953h-0.673v0.703h-0.703v0.713h-3.554v-4.93h3.514v0.673h0.713v0.703h0.703V46.953z
			 M-110.532,46.953v-2.138h-0.703v-0.664h-1.396v3.505h1.426v-0.703H-110.532z"/>
		<path fill="#F9FCFF" d="M-102.404,47.656h-0.673v0.713h-4.257v-4.93h4.227v0.683h0.703v1.416h-0.683v0.702h0.683V47.656z
			 M-103.82,45.538v-1.387h-2.099v1.387H-103.82z M-103.82,47.656v-1.405h-2.099v1.405H-103.82z"/>
		<path fill="#F9FCFF" d="M-97.315,45.538h-0.673v0.702h-0.723v2.129h-1.436V46.28h-0.683v-0.713h-0.713v-2.128h1.396v2.099h1.416
			v-2.099h1.416V45.538z"/>
	</g>
	<rect x="-158.846" y="63.273" fill="none" width="69.66" height="11.251"/>
	<g opacity="0.7" enable-background="new    ">
		<path fill="#F9FCFF" d="M-142.111,66.787h-0.673v0.703h-0.703v0.713h-3.554v-4.93h3.514v0.673h0.713v0.703h0.703V66.787z
			 M-143.527,66.787v-2.138h-0.703v-0.664h-1.396v3.505h1.426v-0.703H-143.527z"/>
		<path fill="#F9FCFF" d="M-136.667,68.203h-1.416v-1.405h-2.099v1.405h-1.416v-3.515h0.673v-0.703h0.723v-0.712h2.119v0.673h0.713
			v0.703h0.703V68.203z M-138.083,66.085v-1.436h-0.703v-0.664h-0.723v0.703h-0.673v1.396H-138.083z"/>
		<path fill="#F9FCFF" d="M-132.281,63.956h-1.386v4.247h-1.416v-4.218h-1.425v-0.712h4.227V63.956z"/>
		<path fill="#F9FCFF" d="M-126.777,68.203h-1.416v-1.405h-2.099v1.405h-1.416v-3.515h0.673v-0.703h0.723v-0.712h2.119v0.673h0.713
			v0.703h0.703V68.203z M-128.193,66.085v-1.436h-0.703v-0.664h-0.723v0.703h-0.673v1.396H-128.193z"/>
		<path fill="#F9FCFF" d="M-117.798,63.956h-3.495v1.396h2.792v0.713h-2.792v2.139h-1.435v-4.93h4.93V63.956z"/>
		<path fill="#F9FCFF" d="M-112.353,66.085h-1.416v0.683h0.713v0.723h0.703v0.713h-2.099V67.54h-0.703v-0.742h-0.713v1.405h-1.416
			v-4.93h4.227v0.683h0.703V66.085z M-113.769,65.372v-1.387h-2.099v2.1h1.416v-0.713H-113.769z"/>
		<path fill="#F9FCFF" d="M-106.908,67.49h-0.673v0.713h-3.544V67.53h-0.712v-3.545h0.673v-0.712h3.554v0.673h0.703V67.49z
			 M-108.324,67.49v-3.505h-2.099v3.505H-108.324z"/>
		<path fill="#F9FCFF" d="M-101.463,68.203h-1.396v-2.108h-0.703v0.692h-0.713v-0.692h-0.683v2.108h-1.435v-4.93h1.396v0.673h0.723
			v0.723h0.673v-0.693h0.723v-0.702h1.416V68.203z"/>
	</g>
	<g opacity="0.95">
		<g>
			<path fill="#FFFFFF" d="M-88.904,41.997h1.324v-1.13l2.023-0.458v1.588h1.891v1.611h-1.891v2.514c0,1.174,0.281,1.76,0.848,1.76
				c0.354,0,0.701-0.043,1.043-0.133l0.397,1.502c-0.591,0.197-1.106,0.297-1.552,0.297c-0.875,0-1.555-0.248-2.036-0.743
				c-0.482-0.497-0.726-1.237-0.726-2.224v-2.974h-1.324v-1.61H-88.904z"/>
			<path fill="#FFFFFF" d="M-80.637,43.444l-0.07,0.693l-1.705-0.21l0.305-1.782c0.845-0.312,1.734-0.467,2.671-0.467
				c0.472,0,0.893,0.037,1.262,0.111c0.367,0.076,0.672,0.166,0.914,0.274c0.242,0.106,0.444,0.255,0.61,0.452
				c0.166,0.193,0.294,0.371,0.378,0.531c0.086,0.16,0.149,0.375,0.194,0.639s0.07,0.479,0.078,0.639
				c0.006,0.161,0.012,0.383,0.012,0.661v2.601l0.586,0.205l-0.551,1.588l-1.318-0.406c-0.733,0.385-1.501,0.576-2.307,0.576
				c-0.979,0-1.748-0.199-2.305-0.6c-0.555-0.4-0.832-0.958-0.832-1.672c0-1.521,1.012-2.283,3.036-2.283h1.673
				c0-0.248-0.006-0.445-0.018-0.592c-0.014-0.145-0.047-0.3-0.096-0.467c-0.05-0.165-0.123-0.292-0.226-0.376
				c-0.103-0.086-0.242-0.158-0.424-0.22c-0.183-0.06-0.405-0.088-0.67-0.088C-79.869,43.251-80.268,43.314-80.637,43.444z
				 M-79.516,48.085c0.556,0,1.059-0.138,1.51-0.412V46.39h-1.634c-0.354,0-0.612,0.053-0.774,0.158
				c-0.162,0.106-0.244,0.315-0.244,0.627c0,0.302,0.099,0.527,0.299,0.681C-80.16,48.007-79.879,48.085-79.516,48.085z"/>
			<path fill="#FFFFFF" d="M-61.859,47.617h1.128v1.62h-3.744v-1.62h0.593v-2.639c0-0.255-0.016-0.465-0.047-0.635
				c-0.032-0.169-0.088-0.327-0.168-0.475c-0.08-0.148-0.201-0.257-0.361-0.327s-0.365-0.105-0.615-0.105
				c-0.432,0-0.871,0.176-1.323,0.521v3.658h0.584v1.62h-3.246v-1.62h0.63v-2.639c0-0.255-0.014-0.465-0.042-0.635
				c-0.028-0.168-0.084-0.327-0.168-0.475c-0.082-0.148-0.204-0.257-0.365-0.328c-0.159-0.069-0.364-0.104-0.614-0.104
				c-0.431,0-0.877,0.176-1.34,0.521v3.659h0.622v1.62h-3.807v-1.62h1.159v-3.69l-1.519-0.459l0.522-1.627l2.328,0.732
				c0.228-0.203,0.553-0.402,0.973-0.596c0.42-0.194,0.814-0.292,1.184-0.292c0.57,0,1.037,0.069,1.401,0.207
				c0.362,0.137,0.673,0.375,0.933,0.712c0.276-0.208,0.625-0.412,1.045-0.615c0.42-0.202,0.82-0.304,1.207-0.304
				c0.52,0,0.957,0.049,1.314,0.147s0.672,0.269,0.941,0.51c0.271,0.242,0.469,0.576,0.596,1.005
				c0.128,0.429,0.193,0.959,0.199,1.591V47.617L-61.859,47.617z"/>
			<path fill="#FFFFFF" d="M-57.424,37.853v4.33c0.213-0.141,0.475-0.299,0.786-0.38c0.312-0.08,0.606-0.12,0.888-0.12
				c1.115,0,1.986,0.332,2.611,0.996c0.624,0.664,0.938,1.635,0.938,2.912c0,1.233-0.353,2.203-1.059,2.903
				s-1.639,1.052-2.802,1.052c-0.4,0-0.786-0.033-1.161-0.104c-0.373-0.066-0.682-0.145-0.926-0.232
				c-0.243-0.088-0.469-0.187-0.672-0.295c-0.207-0.11-0.354-0.199-0.441-0.263c-0.088-0.063-0.152-0.118-0.193-0.158v-9.403
				l-1.604-0.569l0.575-1.706L-57.424,37.853z M-56.078,47.947c0.588,0,1.039-0.213,1.352-0.642c0.314-0.428,0.472-1,0.472-1.717
				c0-0.711-0.126-1.266-0.377-1.666c-0.252-0.398-0.63-0.6-1.133-0.6c-0.302,0-0.615,0.057-0.938,0.171
				c-0.326,0.114-0.565,0.244-0.721,0.39v3.854C-57.127,47.878-56.68,47.947-56.078,47.947z"/>
			<path fill="#FFFFFF" d="M-47.283,49.544c-0.586,0-1.119-0.086-1.597-0.258c-0.479-0.17-0.886-0.421-1.223-0.751
				c-0.339-0.331-0.597-0.737-0.777-1.223c-0.182-0.483-0.272-1.041-0.272-1.67c0-0.628,0.092-1.187,0.274-1.677
				c0.185-0.491,0.447-0.906,0.787-1.246c0.341-0.34,0.748-0.598,1.224-0.775c0.475-0.176,1.002-0.264,1.584-0.264
				c1.08,0,1.912,0.31,2.498,0.931c0.588,0.62,0.881,1.536,0.881,2.744c0,0.362-0.035,0.694-0.103,0.996h-5.028
				c0.067,1.013,0.656,1.517,1.768,1.517c0.914,0,1.773-0.15,2.584-0.459l0.646,1.278C-45.012,49.257-46.094,49.544-47.283,49.544z
				 M-47.268,43.362c-0.555,0-0.951,0.118-1.188,0.35c-0.236,0.234-0.414,0.611-0.535,1.129h3.186
				C-45.805,43.856-46.291,43.362-47.268,43.362z"/>
			<path fill="#FFFFFF" d="M-41.841,47.622v-3.651l-1.534-0.507l0.521-1.625l2.352,0.791c0.016-0.01,0.092-0.058,0.227-0.143
				c0.135-0.086,0.248-0.152,0.337-0.203c0.092-0.05,0.227-0.117,0.401-0.201c0.176-0.086,0.342-0.155,0.494-0.207
				s0.336-0.098,0.545-0.137c0.211-0.039,0.416-0.058,0.619-0.058c0.322,0,0.596,0.043,0.84,0.11l0.398,2.295l-1.676,0.343
				l-0.209-0.833c-0.219,0.029-0.457,0.102-0.717,0.214c-0.259,0.11-0.451,0.229-0.576,0.353v3.457h1.543v1.611h-4.92v-1.609
				H-41.841z"/>
		</g>
	</g>
	
		<linearGradient id="SVGID_1_" gradientUnits="userSpaceOnUse" x1="-580.5308" y1="893.0156" x2="-580.5308" y2="892.9619" gradientTransform="matrix(515.7867 0 0 -92.1074 299384.4062 82314.4922)">
		<stop  offset="0" style="stop-color:#F6F6F6"/>
		<stop  offset="1" style="stop-color:#989693"/>
	</linearGradient>
	<path fill="url(#SVGID_1_)" d="M-56.692,65.729c-0.327,0.254-0.743,0.382-1.254,0.382c-0.37,0-0.693-0.047-0.97-0.144
		c-0.273-0.095-0.523-0.253-0.748-0.477l0.596-0.595c0.14,0.142,0.306,0.243,0.498,0.304c0.191,0.063,0.403,0.095,0.638,0.095
		c0.554,0,0.831-0.195,0.831-0.585c0-0.163-0.041-0.292-0.125-0.383c-0.083-0.089-0.229-0.15-0.437-0.182l-0.265-0.04l-0.305-0.039
		c-0.401-0.058-0.706-0.187-0.914-0.389c-0.226-0.225-0.337-0.533-0.337-0.925c0-0.427,0.147-0.771,0.442-1.032
		c0.295-0.262,0.693-0.394,1.198-0.394c0.328,0,0.614,0.042,0.857,0.13c0.242,0.086,0.463,0.226,0.66,0.419l-0.581,0.575
		c-0.134-0.128-0.279-0.213-0.438-0.258c-0.161-0.044-0.335-0.065-0.526-0.065c-0.233,0-0.413,0.056-0.539,0.167
		c-0.125,0.113-0.188,0.254-0.188,0.426c0,0.123,0.048,0.234,0.146,0.332c0.097,0.099,0.239,0.162,0.429,0.188l0.284,0.039
		l0.272,0.04c0.21,0.031,0.388,0.075,0.53,0.133c0.145,0.056,0.266,0.135,0.367,0.232c0.242,0.228,0.363,0.562,0.363,0.998
		C-56.206,65.127-56.369,65.476-56.692,65.729L-56.692,65.729z M-52.748,62.179v3.889h-0.921v-3.889h-1.229v-0.817h3.378v0.817
		H-52.748z M-49.585,66.065v-4.704h3.103v0.816h-2.181v1.11h1.856v0.816h-1.856v1.146h2.181v0.815H-49.585z M-41.723,66.065
		l-0.276-0.832h-1.673l-0.284,0.832h-0.957l1.711-4.704h0.72l1.72,4.704H-41.723z M-42.818,62.749l-0.596,1.709h1.17L-42.818,62.749
		z M-35.79,66.065v-2.74l-0.892,1.785h-0.62l-0.903-1.785v2.74h-0.921v-4.704h0.909l1.225,2.544l1.219-2.544h0.908v4.704H-35.79
		L-35.79,66.065z M-32.873,61.216c0.339,0,0.609,0.274,0.609,0.618c0,0.349-0.271,0.618-0.609,0.618
		c-0.338,0-0.609-0.27-0.609-0.618C-33.482,61.49-33.211,61.216-32.873,61.216L-32.873,61.216z M-32.873,61.313
		c-0.271,0-0.49,0.232-0.49,0.521c0,0.293,0.22,0.523,0.49,0.523c0.277,0.003,0.497-0.23,0.497-0.521
		C-32.376,61.546-32.596,61.313-32.873,61.313z M-32.985,62.192h-0.113v-0.688c0.058-0.008,0.113-0.016,0.198-0.016
		c0.102,0,0.169,0.022,0.215,0.052c0.038,0.03,0.062,0.077,0.062,0.144c0,0.091-0.062,0.144-0.136,0.167v0.005
		c0.062,0.011,0.103,0.065,0.112,0.166c0.018,0.108,0.035,0.149,0.046,0.171h-0.113c-0.017-0.021-0.033-0.085-0.051-0.175
		c-0.017-0.088-0.056-0.12-0.146-0.12h-0.073V62.192z M-32.985,61.812h0.079c0.091,0,0.163-0.032,0.163-0.118
		c0-0.06-0.044-0.12-0.163-0.12c-0.039,0-0.062,0.002-0.079,0.006V61.812z"/>
	
		<linearGradient id="SVGID_2_" gradientUnits="userSpaceOnUse" x1="-579.3423" y1="890.5137" x2="-579.3423" y2="890.4609" gradientTransform="matrix(624.9149 0 0 -286.8186 361960.6562 255475.125)">
		<stop  offset="0" style="stop-color:#EFEFEE"/>
		<stop  offset="1" style="stop-color:#84827E"/>
	</linearGradient>
	<path fill="url(#SVGID_2_)" d="M-66.19,59.362c-2.467,0-4.474,2.007-4.474,4.473c0,0.02,0,0.04,0.001,0.059l-2.882,4.179
		c-0.465-0.021-0.935,0.061-1.379,0.244c-0.195,0.079-0.378,0.178-0.551,0.29l-12.987-5.368c-0.218-1.011-0.909-1.902-1.934-2.331
		c-1.663-0.692-3.577,0.098-4.271,1.761c-0.693,1.66,0.097,3.575,1.76,4.269c0.804,0.336,1.691,0.337,2.498,0.006
		c0.186-0.078,0.36-0.172,0.527-0.277l13.016,5.38c0.225,1.001,0.913,1.881,1.929,2.304c1.662,0.693,3.579-0.096,4.271-1.758
		c0.179-0.433,0.263-0.889,0.251-1.342l4.123-2.942c0.034,0.002,0.067,0.002,0.102,0.002c2.467,0,4.472-2.007,4.472-4.474
		C-61.719,61.369-63.724,59.362-66.19,59.362 M-92.62,66.247c-0.966-0.401-1.55-1.341-1.55-2.328c0-0.322,0.062-0.649,0.193-0.965
		c0.534-1.282,2.012-1.893,3.293-1.357c0.605,0.251,1.058,0.713,1.312,1.264l-1.49-0.615c-0.944-0.394-2.031,0.053-2.425,0.998
		s0.054,2.034,0.998,2.427l1.496,0.618C-91.388,66.504-92.032,66.494-92.62,66.247 M-71.354,72.303
		c-0.536,1.283-2.014,1.892-3.296,1.358c-0.592-0.248-1.039-0.697-1.297-1.236l1.456,0.604c0.945,0.395,2.032-0.055,2.426-0.999
		c0.395-0.945-0.054-2.031-0.999-2.425l-1.506-0.623c0.581-0.221,1.241-0.229,1.858,0.028c0.621,0.259,1.104,0.745,1.359,1.366
		C-71.095,70.998-71.096,71.683-71.354,72.303 M-66.19,66.815c-1.644,0-2.979-1.337-2.979-2.98c0-1.643,1.336-2.979,2.979-2.979
		s2.98,1.337,2.98,2.979C-63.21,65.479-64.547,66.815-66.19,66.815 M-66.187,66.068c-1.235,0-2.237-1.001-2.237-2.237
		c0-1.237,1.002-2.24,2.237-2.24c1.237,0,2.24,1.003,2.24,2.24C-63.946,65.067-64.949,66.068-66.187,66.068"/>
</g>
<g opacity="0.8">
	<rect x="6.415" y="12.458" fill="none" width="69.661" height="11.25"/>
	<g enable-background="new    ">
		<path fill="#F9FCFF" d="M21.061,15.259h-0.673v0.713h-2.841v1.416H16.13v-4.93h4.227v0.673h0.703V15.259z M19.645,15.259V13.17
			h-2.099v2.089H19.645z"/>
		<path fill="#F9FCFF" d="M26.505,16.675h-0.673v0.713h-3.544v-0.673h-0.712V13.17h0.673v-0.712h3.554v0.673h0.703V16.675z
			 M25.089,16.675V13.17h-2.099v3.505H25.089z"/>
		<path fill="#F9FCFF" d="M31.95,17.388h-1.396v-0.673h-0.703v-0.732h-0.693v0.692h-0.703v0.713H27.02v-4.93h1.396v2.099h0.713
			v-0.684h0.723v0.684h0.683v-2.099h1.416V17.388z"/>
		<path fill="#F9FCFF" d="M37.484,17.349h-4.99v-4.98h4.99v0.693H33.93v1.416h2.128v0.732H33.93v1.426h3.554V17.349z"/>
		<path fill="#F9FCFF" d="M42.84,15.27h-1.416v0.683h0.713v0.723h0.703v0.713h-2.099v-0.663h-0.703v-0.742h-0.713v1.405H37.91v-4.93
			h4.227v0.683h0.703V15.27z M41.424,14.557V13.17h-2.099v2.1h1.416v-0.713H41.424z"/>
		<path fill="#F9FCFF" d="M48.374,17.349h-4.99v-4.98h4.99v0.693h-3.554v1.416h2.128v0.732h-2.128v1.426h3.554V17.349z"/>
		<path fill="#F9FCFF" d="M53.73,15.972h-0.673v0.703h-0.703v0.713H48.8v-4.93h3.514v0.673h0.713v0.703h0.703V15.972z
			 M52.314,15.972v-2.138h-0.703V13.17h-1.396v3.505h1.426v-0.703H52.314z"/>
		<path fill="#F9FCFF" d="M60.442,16.675h-0.673v0.713h-4.257v-4.93h4.227v0.683h0.703v1.416h-0.683v0.702h0.683V16.675z
			 M59.026,14.557V13.17h-2.099v1.387H59.026z M59.026,16.675V15.27h-2.099v1.405H59.026z"/>
		<path fill="#F9FCFF" d="M65.53,14.557h-0.673v0.702h-0.723v2.129h-1.436v-2.089h-0.683v-0.713h-0.713v-2.128h1.396v2.099h1.416
			v-2.099h1.416V14.557z"/>
	</g>
	<rect x="4" y="32.292" fill="none" width="69.66" height="11.251"/>
	<g enable-background="new    ">
		<path fill="#F9FCFF" d="M20.734,35.806h-0.673v0.703h-0.703v0.713h-3.554v-4.93h3.514v0.673h0.713v0.703h0.703V35.806z
			 M19.318,35.806v-2.138h-0.703v-0.664H17.22v3.505h1.426v-0.703H19.318z"/>
		<path fill="#F9FCFF" d="M26.179,37.222h-1.416v-1.405h-2.099v1.405h-1.416v-3.515h0.673v-0.703h0.723v-0.712h2.119v0.673h0.713
			v0.703h0.703V37.222z M24.763,35.104v-1.436h-0.703v-0.664h-0.723v0.703h-0.673v1.396H24.763z"/>
		<path fill="#F9FCFF" d="M30.564,32.975h-1.386v4.247h-1.416v-4.218h-1.425v-0.712h4.227V32.975z"/>
		<path fill="#F9FCFF" d="M36.069,37.222h-1.416v-1.405h-2.099v1.405h-1.416v-3.515h0.673v-0.703h0.723v-0.712h2.119v0.673h0.713
			v0.703h0.703V37.222z M34.653,35.104v-1.436H33.95v-0.664h-0.723v0.703h-0.673v1.396H34.653z"/>
		<path fill="#F9FCFF" d="M45.048,32.975h-3.495v1.396h2.792v0.713h-2.792v2.139h-1.435v-4.93h4.93V32.975z"/>
		<path fill="#F9FCFF" d="M50.493,35.104h-1.416v0.683h0.713v0.723h0.703v0.713h-2.099v-0.663h-0.703v-0.742h-0.713v1.405h-1.416
			v-4.93h4.227v0.683h0.703V35.104z M49.077,34.391v-1.387h-2.099v2.1h1.416v-0.713H49.077z"/>
		<path fill="#F9FCFF" d="M55.938,36.509h-0.673v0.713H51.72v-0.673h-0.712v-3.545h0.673v-0.712h3.554v0.673h0.703V36.509z
			 M54.522,36.509v-3.505h-2.099v3.505H54.522z"/>
		<path fill="#F9FCFF" d="M61.383,37.222h-1.396v-2.108h-0.703v0.692h-0.713v-0.692h-0.683v2.108h-1.435v-4.93h1.396v0.673h0.723
			v0.723h0.673v-0.693h0.723v-0.702h1.416V37.222z"/>
	</g>
	<g opacity="0.95">
		<g>
			<path fill="#FFFFFF" d="M73.941,11.016h1.324v-1.13l2.023-0.458v1.588h1.891v1.611h-1.891v2.514c0,1.174,0.281,1.76,0.848,1.76
				c0.354,0,0.701-0.043,1.043-0.133l0.397,1.502c-0.591,0.197-1.106,0.297-1.552,0.297c-0.875,0-1.555-0.248-2.036-0.743
				c-0.482-0.497-0.726-1.237-0.726-2.224v-2.974h-1.324v-1.61H73.941z"/>
			<path fill="#FFFFFF" d="M82.209,12.463l-0.07,0.693l-1.705-0.21l0.305-1.782c0.845-0.312,1.734-0.467,2.671-0.467
				c0.472,0,0.893,0.037,1.262,0.111c0.367,0.076,0.672,0.166,0.914,0.274c0.242,0.106,0.444,0.255,0.61,0.452
				c0.166,0.193,0.294,0.371,0.378,0.531c0.086,0.16,0.149,0.375,0.194,0.639s0.07,0.479,0.078,0.639
				c0.006,0.161,0.012,0.383,0.012,0.661v2.601l0.586,0.205l-0.551,1.588l-1.318-0.406c-0.733,0.385-1.501,0.576-2.307,0.576
				c-0.979,0-1.748-0.199-2.305-0.6c-0.555-0.4-0.832-0.958-0.832-1.672c0-1.521,1.012-2.283,3.036-2.283h1.673
				c0-0.248-0.006-0.445-0.018-0.592c-0.014-0.145-0.047-0.3-0.096-0.467c-0.05-0.165-0.123-0.292-0.226-0.376
				c-0.103-0.086-0.242-0.158-0.424-0.22c-0.183-0.06-0.405-0.088-0.67-0.088C82.977,12.27,82.578,12.333,82.209,12.463z
				 M83.33,17.104c0.556,0,1.059-0.138,1.51-0.412v-1.283h-1.634c-0.354,0-0.612,0.053-0.774,0.158
				c-0.162,0.106-0.244,0.315-0.244,0.627c0,0.302,0.099,0.527,0.299,0.681C82.686,17.025,82.967,17.104,83.33,17.104z"/>
			<path fill="#FFFFFF" d="M100.986,16.636h1.128v1.62H98.37v-1.62h0.593v-2.639c0-0.255-0.016-0.465-0.047-0.635
				c-0.032-0.169-0.088-0.327-0.168-0.475c-0.08-0.148-0.201-0.257-0.361-0.327s-0.365-0.105-0.615-0.105
				c-0.432,0-0.871,0.176-1.323,0.521v3.658h0.584v1.62h-3.246v-1.62h0.63v-2.639c0-0.255-0.014-0.465-0.042-0.635
				c-0.028-0.168-0.084-0.327-0.168-0.475c-0.082-0.148-0.204-0.257-0.365-0.328c-0.159-0.069-0.364-0.104-0.614-0.104
				c-0.431,0-0.877,0.176-1.34,0.521v3.659h0.622v1.62h-3.807v-1.62h1.159v-3.69l-1.519-0.459l0.522-1.627l2.328,0.732
				c0.228-0.203,0.553-0.402,0.973-0.596c0.42-0.194,0.814-0.292,1.184-0.292c0.57,0,1.037,0.069,1.401,0.207
				c0.362,0.137,0.673,0.375,0.933,0.712c0.276-0.208,0.625-0.412,1.045-0.615c0.42-0.202,0.82-0.304,1.207-0.304
				c0.52,0,0.957,0.049,1.314,0.147s0.672,0.269,0.941,0.51c0.271,0.242,0.469,0.576,0.596,1.005
				c0.128,0.429,0.193,0.959,0.199,1.591V16.636L100.986,16.636z"/>
			<path fill="#FFFFFF" d="M105.422,6.871v4.33c0.213-0.141,0.475-0.299,0.786-0.38c0.312-0.08,0.606-0.12,0.888-0.12
				c1.115,0,1.986,0.332,2.611,0.996c0.624,0.664,0.938,1.635,0.938,2.912c0,1.233-0.353,2.203-1.059,2.903
				s-1.639,1.052-2.802,1.052c-0.4,0-0.786-0.033-1.161-0.104c-0.373-0.066-0.682-0.145-0.926-0.232
				c-0.243-0.088-0.469-0.187-0.672-0.295c-0.207-0.11-0.354-0.199-0.441-0.263c-0.088-0.063-0.152-0.118-0.193-0.158V8.109
				l-1.604-0.569l0.575-1.706L105.422,6.871z M106.768,16.966c0.588,0,1.039-0.213,1.352-0.642c0.314-0.428,0.472-1,0.472-1.717
				c0-0.711-0.126-1.266-0.377-1.666c-0.252-0.398-0.63-0.6-1.133-0.6c-0.302,0-0.615,0.057-0.938,0.171
				c-0.326,0.114-0.565,0.244-0.721,0.39v3.854C105.719,16.896,106.166,16.966,106.768,16.966z"/>
			<path fill="#FFFFFF" d="M115.562,18.562c-0.586,0-1.119-0.086-1.597-0.258c-0.479-0.17-0.886-0.421-1.223-0.751
				c-0.339-0.331-0.597-0.737-0.777-1.223c-0.182-0.483-0.272-1.041-0.272-1.67c0-0.628,0.092-1.187,0.274-1.677
				c0.185-0.491,0.447-0.906,0.787-1.246c0.341-0.34,0.748-0.598,1.224-0.775c0.475-0.176,1.002-0.264,1.584-0.264
				c1.08,0,1.912,0.31,2.498,0.931c0.588,0.62,0.881,1.536,0.881,2.744c0,0.362-0.035,0.694-0.103,0.996h-5.028
				c0.067,1.013,0.656,1.517,1.768,1.517c0.914,0,1.773-0.15,2.584-0.459l0.646,1.278C117.834,18.275,116.752,18.562,115.562,18.562
				z M115.578,12.381c-0.555,0-0.951,0.118-1.188,0.35c-0.236,0.234-0.414,0.611-0.535,1.129h3.186
				C117.041,12.875,116.555,12.381,115.578,12.381z"/>
			<path fill="#FFFFFF" d="M121.005,16.641v-3.651l-1.534-0.507l0.521-1.625l2.352,0.791c0.016-0.01,0.092-0.058,0.227-0.143
				c0.135-0.086,0.248-0.152,0.337-0.203c0.092-0.05,0.227-0.117,0.401-0.201c0.176-0.086,0.342-0.155,0.494-0.207
				s0.336-0.098,0.545-0.137c0.211-0.039,0.416-0.058,0.619-0.058c0.322,0,0.596,0.043,0.84,0.11l0.398,2.295l-1.676,0.343
				l-0.209-0.833c-0.219,0.029-0.457,0.102-0.717,0.214c-0.259,0.11-0.451,0.229-0.576,0.353v3.457h1.543v1.611h-4.92v-1.609
				H121.005z"/>
		</g>
	</g>
	
		<linearGradient id="SVGID_3_" gradientUnits="userSpaceOnUse" x1="-580.2153" y1="893.3516" x2="-580.2153" y2="893.2988" gradientTransform="matrix(515.7867 0 0 -92.1074 299384.4062 82314.4922)">
		<stop  offset="0" style="stop-color:#F6F6F6"/>
		<stop  offset="1" style="stop-color:#989693"/>
	</linearGradient>
	<path fill="url(#SVGID_3_)" d="M106.153,34.747c-0.327,0.254-0.743,0.382-1.254,0.382c-0.37,0-0.693-0.047-0.97-0.144
		c-0.273-0.095-0.523-0.253-0.748-0.477l0.596-0.595c0.14,0.142,0.306,0.243,0.498,0.304c0.191,0.063,0.403,0.095,0.638,0.095
		c0.554,0,0.831-0.195,0.831-0.585c0-0.163-0.041-0.292-0.125-0.383c-0.083-0.089-0.229-0.15-0.437-0.182l-0.265-0.04l-0.305-0.039
		c-0.401-0.058-0.706-0.187-0.914-0.389c-0.226-0.225-0.337-0.533-0.337-0.925c0-0.427,0.147-0.771,0.442-1.032
		c0.295-0.262,0.693-0.394,1.198-0.394c0.328,0,0.614,0.042,0.857,0.13c0.242,0.086,0.463,0.226,0.66,0.419l-0.581,0.575
		c-0.134-0.128-0.279-0.213-0.438-0.258c-0.161-0.044-0.335-0.065-0.526-0.065c-0.233,0-0.413,0.056-0.539,0.167
		c-0.125,0.113-0.188,0.254-0.188,0.426c0,0.123,0.048,0.234,0.146,0.332c0.097,0.099,0.239,0.162,0.429,0.188l0.284,0.039
		l0.272,0.04c0.21,0.031,0.388,0.075,0.53,0.133c0.145,0.056,0.266,0.135,0.367,0.232c0.242,0.228,0.363,0.562,0.363,0.998
		C106.64,34.146,106.477,34.494,106.153,34.747L106.153,34.747z M110.098,31.197v3.889h-0.921v-3.889h-1.229V30.38h3.378v0.817
		H110.098z M113.261,35.084V30.38h3.103v0.816h-2.181v1.11h1.856v0.816h-1.856v1.146h2.181v0.815H113.261z M121.123,35.084
		l-0.276-0.832h-1.673l-0.284,0.832h-0.957l1.711-4.704h0.72l1.72,4.704H121.123z M120.027,31.768l-0.596,1.709h1.17L120.027,31.768
		z M127.056,35.084v-2.74l-0.892,1.785h-0.62l-0.903-1.785v2.74h-0.921V30.38h0.909l1.225,2.544l1.219-2.544h0.908v4.704H127.056
		L127.056,35.084z M129.973,30.234c0.339,0,0.609,0.274,0.609,0.618c0,0.349-0.271,0.618-0.609,0.618
		c-0.338,0-0.609-0.27-0.609-0.618C129.363,30.509,129.635,30.234,129.973,30.234L129.973,30.234z M129.973,30.332
		c-0.271,0-0.49,0.232-0.49,0.521c0,0.293,0.22,0.523,0.49,0.523c0.277,0.003,0.497-0.23,0.497-0.521
		C130.47,30.564,130.25,30.332,129.973,30.332z M129.86,31.211h-0.113v-0.688c0.058-0.008,0.113-0.016,0.198-0.016
		c0.102,0,0.169,0.022,0.215,0.052c0.038,0.03,0.062,0.077,0.062,0.144c0,0.091-0.062,0.144-0.136,0.167v0.005
		c0.062,0.011,0.103,0.065,0.112,0.166c0.018,0.108,0.035,0.149,0.046,0.171h-0.113c-0.017-0.021-0.033-0.085-0.051-0.175
		c-0.017-0.088-0.056-0.12-0.146-0.12h-0.073V31.211z M129.86,30.83h0.079c0.091,0,0.163-0.032,0.163-0.118
		c0-0.06-0.044-0.12-0.163-0.12c-0.039,0-0.062,0.002-0.079,0.006V30.83z"/>
	
		<linearGradient id="SVGID_4_" gradientUnits="userSpaceOnUse" x1="-579.0815" y1="890.6221" x2="-579.0815" y2="890.5684" gradientTransform="matrix(624.9149 0 0 -286.8186 361960.6562 255475.125)">
		<stop  offset="0" style="stop-color:#EFEFEE"/>
		<stop  offset="1" style="stop-color:#84827E"/>
	</linearGradient>
	<path fill="url(#SVGID_4_)" d="M96.655,28.381c-2.467,0-4.474,2.007-4.474,4.473c0,0.02,0,0.04,0.001,0.059l-2.882,4.179
		c-0.465-0.021-0.935,0.061-1.379,0.244c-0.195,0.079-0.378,0.178-0.551,0.29l-12.987-5.368c-0.218-1.011-0.909-1.902-1.934-2.331
		c-1.663-0.692-3.577,0.098-4.271,1.761c-0.693,1.66,0.097,3.575,1.76,4.269c0.804,0.336,1.691,0.337,2.498,0.006
		c0.186-0.078,0.36-0.172,0.527-0.277l13.016,5.38c0.225,1.001,0.913,1.881,1.929,2.304c1.662,0.693,3.579-0.096,4.271-1.758
		c0.179-0.433,0.263-0.889,0.251-1.342l4.123-2.942c0.034,0.002,0.067,0.002,0.102,0.002c2.467,0,4.472-2.007,4.472-4.474
		C101.127,30.388,99.122,28.381,96.655,28.381 M70.226,35.266c-0.966-0.401-1.55-1.341-1.55-2.328c0-0.322,0.062-0.649,0.193-0.965
		c0.534-1.282,2.012-1.893,3.293-1.357c0.605,0.251,1.058,0.713,1.312,1.264l-1.49-0.615c-0.944-0.394-2.031,0.053-2.425,0.998
		s0.054,2.034,0.998,2.427l1.496,0.618C71.458,35.522,70.813,35.513,70.226,35.266 M91.492,41.321
		c-0.536,1.283-2.014,1.892-3.296,1.358c-0.592-0.248-1.039-0.697-1.297-1.236l1.456,0.604c0.945,0.395,2.032-0.055,2.426-0.999
		c0.395-0.945-0.054-2.031-0.999-2.425L88.276,38c0.581-0.221,1.241-0.229,1.858,0.028c0.621,0.259,1.104,0.745,1.359,1.366
		C91.751,40.017,91.75,40.701,91.492,41.321 M96.655,35.834c-1.644,0-2.979-1.337-2.979-2.98c0-1.643,1.336-2.979,2.979-2.979
		s2.98,1.337,2.98,2.979C99.636,34.497,98.299,35.834,96.655,35.834 M96.659,35.087c-1.235,0-2.237-1.001-2.237-2.237
		c0-1.237,1.002-2.24,2.237-2.24c1.237,0,2.24,1.003,2.24,2.24C98.899,34.086,97.896,35.087,96.659,35.087"/>
</g>
</svg>
