<?xml version="1.0" encoding="utf-8"?>
<!-- Generator: Adobe Illustrator 16.0.0, SVG Export Plug-In . SVG Version: 6.00 Build 0)  -->
<!DOCTYPE svg PUBLIC "-//W3C//DTD SVG 1.1//EN" "http://www.w3.org/Graphics/SVG/1.1/DTD/svg11.dtd">
<svg version="1.1" id="Layer_1" xmlns="http://www.w3.org/2000/svg" xmlns:xlink="http://www.w3.org/1999/xlink" x="0px" y="0px"
	 width="565px" height="138px" viewBox="0 0 565 138" enable-background="new 0 0 565 138" xml:space="preserve">
<g>
	<path fill="#030040" d="M101.68,35.969l-3.86,13.871H82.805v75.07l-3.864,13.871h-40.61V49.84H18.312V13.09l3.86-13.871h79.507
		V35.969z M95.529,29.818V5.366H28.466v24.452h20.019v88.941h28.17V29.818H95.529z"/>
	<path fill="#030040" d="M181.898,111.899l-3.86,13.866H98.389V42.261l28.167-43.042h55.342V111.899z M175.749,105.75V5.366h-45.864
		l-21.342,32.607v67.777h28.17V63.281h10.723v42.469H175.749z M147.436,45.834h-10.723l10.723-20.592V45.834z"/>
	<path fill="#030040" d="M301.012,111.899l-3.861,13.866H178.466V13.09l3.86-13.871h54.624l21.453,21.162h42.609V111.899z
		 M294.864,105.75V26.531h-38.983L234.428,5.366h-45.809V105.75h28.312V29.818h10.581v75.932h28.312V50.983h10.584v54.767H294.864z"
		/>
	<path fill="#030040" d="M381.233,19.666v22.165l-2.001,6.863h2.001V87.16l-3.86,13.871l-25.025,24.734h-54.623V13.09l3.859-13.871
		h54.197L381.233,19.666z M375.084,84.594v-29.75h-15.728l15.728-15.611V22.618L353.613,5.366h-45.736V105.75h45.807L375.084,84.594
		z M346.628,45.834h-10.581V29.818h10.581V45.834z M346.628,81.297h-10.581V63.281h10.581V81.297z"/>
	<path fill="#030040" d="M461.168,111.899l-3.861,13.866h-79.506V13.09l3.86-13.871h79.507v36.75l-3.861,13.871h-20.021v19.588
		l-3.859,5.72h27.742V111.899z M455.018,105.75V81.297h-38.894V63.281h15.015V45.834h-15.015V29.818h38.894V5.366h-67.063V105.75
		H455.018z"/>
	<path fill="#030040" d="M541.244,19.666V62.28l-2.289,4.719l2.289,2.287v55.625l-3.86,13.871h-40.613v-13.016h-38.894V13.09
		l3.861-13.871h54.195L541.244,19.666z M535.094,22.604L513.758,5.366H468.03V105.75h28.171V64.709l10.58,10.727v43.324h28.312
		V71.828l-15.555-15.556l15.555-0.142V22.604z M506.781,45.834h-10.58V29.818h10.58V45.834z"/>
</g>
</svg>
