<?xml version="1.0" encoding="utf-8"?>
<!-- Generator: Adobe Illustrator 16.0.0, SVG Export Plug-In . SVG Version: 6.00 Build 0)  -->
<!DOCTYPE svg PUBLIC "-//W3C//DTD SVG 1.1//EN" "http://www.w3.org/Graphics/SVG/1.1/DTD/svg11.dtd">
<svg version="1.1" id="Layer_1" xmlns="http://www.w3.org/2000/svg" xmlns:xlink="http://www.w3.org/1999/xlink" x="0px" y="0px"
	 width="565px" height="138px" viewBox="0 0 565 138" enable-background="new 0 0 565 138" xml:space="preserve">
<g>
	<g>
		<g>
			<path fill="#212121" d="M0.277,56.367h14.292V44.163l21.854-4.958v17.162h20.421V73.76H36.422v27.15
				c0,12.662,3.053,18.992,9.173,18.992c3.804,0,7.574-0.471,11.248-1.433l4.294,16.229c-6.372,2.124-11.953,3.192-16.741,3.192
				c-9.453,0-16.786-2.662-22.004-8.018c-5.205-5.355-7.823-13.346-7.823-24.01V73.759H0.277V56.367z"/>
			<path fill="#212121" d="M89.56,72.011l-0.769,7.464l-18.407-2.264l3.273-19.263c9.132-3.344,18.75-5.045,28.848-5.045
				c5.091,0,9.638,0.417,13.614,1.225c3.987,0.799,7.269,1.801,9.86,2.946c2.627,1.158,4.82,2.76,6.614,4.875
				c1.786,2.101,3.172,4.024,4.07,5.756c0.934,1.719,1.625,4.031,2.078,6.906c0.49,2.842,0.788,5.145,0.879,6.875
				c0.083,1.762,0.101,4.129,0.101,7.146v28.079l6.354,2.225l-5.956,17.133l-14.25-4.401c-7.91,4.161-16.187,6.224-24.87,6.224
				c-10.597,0-18.887-2.154-24.889-6.467c-6.01-4.312-8.99-10.354-8.99-18.076c0-16.426,10.922-24.629,32.757-24.629h18.082
				c0-2.695-0.055-4.806-0.192-6.386c-0.146-1.562-0.481-3.254-1.007-5.049c-0.559-1.794-1.35-3.159-2.465-4.074
				c-1.069-0.935-2.598-1.717-4.557-2.367c-1.978-0.627-4.395-0.971-7.232-0.971C97.845,69.873,93.523,70.587,89.56,72.011z
				 M101.663,122.094c6.003,0,11.434-1.492,16.295-4.458v-13.86h-17.656c-3.809,0-6.592,0.576-8.349,1.721
				c-1.767,1.145-2.657,3.398-2.657,6.775c0,3.246,1.096,5.685,3.248,7.352C94.69,121.28,97.735,122.094,101.663,122.094z"/>
			<path fill="#212121" d="M292.312,117.055h12.172v17.478h-40.43v-17.478h6.372V88.538c0-2.737-0.146-5.011-0.49-6.845
				c-0.311-1.795-0.934-3.518-1.803-5.11c-0.879-1.625-2.179-2.778-3.9-3.547c-1.721-0.761-3.959-1.117-6.642-1.117
				c-4.669,0-9.407,1.886-14.292,5.612v39.523h6.308v17.477h-35.06v-17.477h6.815V88.538c0-2.737-0.164-5.011-0.453-6.845
				c-0.315-1.795-0.925-3.518-1.831-5.11c-0.888-1.625-2.211-2.778-3.941-3.547c-1.73-0.761-3.941-1.117-6.642-1.117
				c-4.66,0-9.466,1.886-14.456,5.612v39.523h6.706v17.477h-41.093v-17.477h12.543V77.211l-16.406-4.967l5.63-17.564l25.147,7.896
				c2.456-2.17,5.958-4.337,10.499-6.418c4.539-2.12,8.798-3.163,12.776-3.163c6.166,0,11.206,0.739,15.128,2.22
				c3.932,1.506,7.288,4.06,10.089,7.699c2.98-2.238,6.725-4.454,11.264-6.646c4.534-2.172,8.864-3.273,13.035-3.273
				c5.603,0,10.341,0.536,14.195,1.609c3.886,1.055,7.242,2.9,10.176,5.486c2.901,2.616,5.067,6.249,6.427,10.85
				c1.378,4.623,2.101,10.358,2.155,17.192v28.923H292.312z"/>
			<path fill="#212121" d="M340.193,11.608v46.761c2.312-1.515,5.131-3.255,8.496-4.125c3.358-0.86,6.559-1.286,9.585-1.286
				c12.04,0,21.437,3.589,28.188,10.762c6.752,7.157,10.135,17.637,10.135,31.43c0,13.322-3.809,23.785-11.438,31.36
				c-7.622,7.54-17.693,11.339-30.254,11.339c-4.312,0-8.491-0.375-12.533-1.084c-4.028-0.742-7.353-1.58-9.988-2.537
				c-2.637-0.944-5.058-2.004-7.277-3.186c-2.214-1.186-3.8-2.133-4.745-2.829c-0.969-0.687-1.646-1.269-2.108-1.719V24.975
				l-17.313-6.138l6.24-18.412L340.193,11.608z M354.729,120.602c6.348,0,11.19-2.289,14.588-6.926
				c3.405-4.605,5.095-10.785,5.095-18.525c0-7.687-1.378-13.678-4.069-17.981c-2.729-4.321-6.815-6.491-12.227-6.491
				c-3.254,0-6.651,0.633-10.145,1.863c-3.507,1.236-6.089,2.632-7.776,4.195v41.604
				C343.391,119.855,348.227,120.602,354.729,120.602z"/>
			<path fill="#212121" d="M449.69,137.852c-6.317,0-12.062-0.916-17.224-2.781c-5.162-1.844-9.556-4.539-13.218-8.101
				c-3.635-3.575-6.427-7.974-8.396-13.216c-1.95-5.218-2.935-11.236-2.935-18.015c0-6.784,0.994-12.824,2.971-18.123
				c1.986-5.285,4.834-9.771,8.511-13.447c3.662-3.673,8.052-6.455,13.188-8.363c5.131-1.914,10.819-2.847,17.103-2.847
				c11.664,0,20.655,3.333,26.976,10.034c6.354,6.696,9.515,16.575,9.515,29.631c0,3.914-0.373,7.503-1.087,10.767h-54.309
				c0.731,10.92,7.114,16.383,19.08,16.383c9.851,0,19.152-1.656,27.902-4.971l6.983,13.807
				C474.216,134.761,462.553,137.852,449.69,137.852z M449.864,71.104c-5.992,0-10.269,1.269-12.809,3.781
				c-2.554,2.522-4.477,6.588-5.781,12.182h34.385C465.659,76.441,460.406,71.104,449.864,71.104z"/>
			<path fill="#212121" d="M508.466,117.086V77.664l-16.585-5.469l5.663-17.56l25.388,8.571c0.138-0.124,0.972-0.631,2.432-1.556
				c1.439-0.916,2.646-1.664,3.652-2.184c0.952-0.54,2.423-1.254,4.345-2.186c1.891-0.916,3.657-1.66,5.318-2.232
				c1.657-0.559,3.607-1.048,5.882-1.474c2.275-0.421,4.495-0.618,6.658-0.618c3.497,0,6.437,0.462,9.075,1.19l4.312,24.77
				l-18.094,3.717l-2.268-9.002c-2.325,0.347-4.917,1.101-7.709,2.318c-2.815,1.2-4.894,2.468-6.218,3.817v37.317h16.65v17.392
				h-53.154v-17.392L508.466,117.086L508.466,117.086z"/>
		</g>
	</g>
</g>
</svg>
